<?xml version="1.0" encoding="utf-8"?>
<!-- Generator: Adobe Illustrator 28.0.0, SVG Export Plug-In . SVG Version: 6.00 Build 0)  -->
<svg version="1.1" id="Layer_1" xmlns="http://www.w3.org/2000/svg" xmlns:xlink="http://www.w3.org/1999/xlink" x="0px" y="0px"
	 viewBox="0 0 474 300" style="enable-background:new 0 0 474 300;" xml:space="preserve">
<style type="text/css">
	.st0{fill:#2F2F2F;}
	.st1{fill:#EE7623;}
	.st2{fill:none;stroke:#EE7623;stroke-width:0.9632;stroke-miterlimit:10;}
	
		.st3{clip-path:url(#SVGID_00000162333388196982803840000001195786370681943170_);fill:url(#SVGID_00000181775376985769173970000003767363366557813664_);}
	.st4{clip-path:url(#SVGID_00000176002719868212054610000010274169472118991770_);}
	.st5{clip-path:url(#SVGID_00000042008702676813758280000009624809063096309634_);}
	.st6{clip-path:url(#SVGID_00000084522756298990084430000017603067641215455407_);}
	
		.st7{clip-path:url(#SVGID_00000119089990177687909330000016678024518733263796_);fill:url(#SVGID_00000020373402266357717000000017093418350352887198_);}
	.st8{clip-path:url(#SVGID_00000117678016591459177130000010421619902322710207_);}
	.st9{clip-path:url(#SVGID_00000043443142962564898480000003938284965106462138_);}
	.st10{clip-path:url(#SVGID_00000183941500408755714340000008708147510526642605_);}
	
		.st11{clip-path:url(#SVGID_00000173122913398063566370000009940714415026595515_);fill:url(#SVGID_00000086674695152271080060000014572141493232851389_);}
	.st12{clip-path:url(#SVGID_00000053533708925895274720000017101795862662296217_);}
	.st13{clip-path:url(#SVGID_00000104691845225819787090000014285814842754035846_);}
	.st14{clip-path:url(#SVGID_00000048493134333191236300000005145410380933303940_);}
	
		.st15{clip-path:url(#SVGID_00000068664641622055116450000009852668446515533491_);fill:url(#SVGID_00000158009421573765122560000000115621591321668285_);}
	.st16{clip-path:url(#SVGID_00000047758668352579726240000005321181173551940798_);}
	.st17{clip-path:url(#SVGID_00000031896868884013940010000003546992855076183458_);}
	.st18{clip-path:url(#SVGID_00000003076888736976913430000008849145271228168891_);}
	
		.st19{clip-path:url(#SVGID_00000080181435237126179250000015464924878179942303_);fill:url(#SVGID_00000178190722208738906630000014156167347544666528_);}
	.st20{fill:none;stroke:#3A393A;stroke-width:0.8023;stroke-miterlimit:10;}
	.st21{fill:none;stroke:#231F20;stroke-width:1.0704;stroke-miterlimit:10;}
</style>
<g id="Camada_1">
</g>
<g id="Camada_2">
</g>
<g>
	<rect class="st0" width="474.1" height="300"/>
	<g>
		<g>
			<rect x="238.7" y="68.4" class="st1" width="24" height="5"/>
			<path class="st1" d="M233.2,72.4c0.5,0.6,0.9,1,1.6,1c1.2,0,2.1-1.1,1.5-2.6l-2.9-7.8h-7.6L233.2,72.4z"/>
			<path class="st1" d="M238.2,111.6c0,6.7,5,12,12.3,12s12.7-5.3,12.7-12.5c0-4.4-2.1-8-5.3-10.4l-2.9,3.5c2.3,1.7,3.4,4.1,3.4,7
				c0,3.9-2.2,6.5-5.8,7.3v-16c0-1.5-0.7-2.5-2.5-2.5C244.7,100,238.2,104,238.2,111.6z M248.2,118.5c-3.3-0.7-5.3-3.3-5.3-6.9
				c0-3.6,2-6,5.3-6.5V118.5z"/>
			<path class="st1" d="M253.5,91V78.6H249V91c-3.8,0.1-6-2.4-6-5.9c0-1.9,0.7-3.5,1.5-4.8l-3.6-3.2c-1.7,2.3-2.6,4.8-2.6,7.8
				c0,6.6,4.4,11.1,10.7,11.1h13.8v-5H253.5z"/>
			<path class="st1" d="M269.5,91.6c-0.3-0.5-0.8-0.8-1.4-0.8c-1,0-1.6,0.8-1.6,2V95v0.6V96h6.5v-0.5V95v-2.1c0-1.4-0.7-2.2-1.8-2.2
				C270.3,90.6,269.8,91,269.5,91.6z M267.4,92.9c0-0.6,0.3-1,0.9-1s0.9,0.4,0.9,0.9V95h-1.8V92.9z M272,92.9V95h-1.8v-2.3
				c0-0.6,0.3-1,0.8-1C271.6,91.7,272,92.2,272,92.9z"/>
			<rect x="266.4" y="73" class="st1" width="6.5" height="1.1"/>
			<path class="st1" d="M266.4,68.4v1.4l2.7,2.5c0.4,0.3,0.7,0.3,1.1,0l2.7-2.5v-1.3l-3.3,3L266.4,68.4z"/>
			<path class="st1" d="M271.3,77.3l-4.4,3.2c-0.3,0.2-0.4,0.4-0.4,0.7c0,0.4,0.3,0.6,0.7,0.6h5.8v-1.1l-4.8,0l4.4-3.2
				c0.3-0.2,0.4-0.5,0.4-0.8c0-0.4-0.3-0.6-0.7-0.6h-5.8v1.1L271.3,77.3z"/>
			<path class="st1" d="M266.4,86.4c0,0.4,0.2,0.7,0.6,0.8l5.9,2.5v-1.1l-1.3-0.5v-3.4l1.3-0.5V83l-5.9,2.5
				C266.7,85.7,266.4,85.9,266.4,86.4z M270.7,87.7l-3.1-1.3l3.1-1.3V87.7z"/>
		</g>
		<g>
			<path class="st2" d="M116.1,0l96.8,123.7c12.9,16.7,25.7,27,45,27c33.4,0,59.2-32.2,43.7-73.3L273.1,0"/>
		</g>
		<g>
			<g>
				<defs>
					<path id="SVGID_1_" d="M448.2,100.6v7.7l-24.3,6.3c-1.5,0.4-2.3,0.8-3.1,2.2c-1.1,1.9-2,4.9-2.5,7.3v-13c0-1.6,1.1-2.8,2.7-3.2
						l19.8-3.7l-22.5-8.9V88L448.2,100.6"/>
				</defs>
				<clipPath id="SVGID_00000129885160705042561340000007031644763524078006_">
					<use xlink:href="#SVGID_1_"  style="overflow:visible;"/>
				</clipPath>
				
					<linearGradient id="SVGID_00000045583473387547566130000012146574262090769044_" gradientUnits="userSpaceOnUse" x1="-73.8942" y1="559.511" x2="-71.3127" y2="559.511" gradientTransform="matrix(-12.016 0 0 12.016 -439.1284 -6616.9561)">
					<stop  offset="0" style="stop-color:#808083"/>
					<stop  offset="0.3901" style="stop-color:#CFD1D2"/>
					<stop  offset="0.6374" style="stop-color:#E5E5E5"/>
					<stop  offset="0.7417" style="stop-color:#C1C2C3"/>
					<stop  offset="0.8426" style="stop-color:#A6A8A9"/>
					<stop  offset="0.9318" style="stop-color:#96989A"/>
					<stop  offset="1" style="stop-color:#909294"/>
				</linearGradient>
				
					<rect x="418.3" y="88" style="clip-path:url(#SVGID_00000129885160705042561340000007031644763524078006_);fill:url(#SVGID_00000045583473387547566130000012146574262090769044_);" width="29.9" height="36.2"/>
			</g>
			<g>
				<defs>
					<path id="SVGID_00000127753617610510536270000001512732887365687937_" d="M417.8,124.9l0.9,0.2c0.6-2.8,1.6-6,2.6-7.9
						c0.6-1.2,1.2-1.5,2.7-1.9l24.8-6.4v-8.5l-31-13v8.5l21.1,8.4l-17.9,3.4c-2,0.4-3.2,2-3.2,3.7V124.9 M449.3,99.9v9.3l-25.2,6.5
						c-1.4,0.4-1.8,0.6-2.4,1.7c-0.9,1.7-1.9,4.7-2.6,7.8l-0.1,0.5l-1.9-0.4v-14.1c0-2.1,1.4-3.8,3.6-4.2l16.1-3l-19.7-7.8v-9.7
						L449.3,99.9"/>
				</defs>
				<clipPath id="SVGID_00000098221641310230438800000005965952581140197520_">
					<use xlink:href="#SVGID_00000127753617610510536270000001512732887365687937_"  style="overflow:visible;"/>
				</clipPath>
				<g style="clip-path:url(#SVGID_00000098221641310230438800000005965952581140197520_);">
					<g>
						<defs>
							<rect id="SVGID_00000067215868410145721000000009467435161703825596_" x="417" y="86.4" width="32.1" height="39.3"/>
						</defs>
						<clipPath id="SVGID_00000112623764820802030750000009387755053805174960_">
							<use xlink:href="#SVGID_00000067215868410145721000000009467435161703825596_"  style="overflow:visible;"/>
						</clipPath>
						<g style="clip-path:url(#SVGID_00000112623764820802030750000009387755053805174960_);">
							<defs>
								<rect id="SVGID_00000176750556197908490770000010343754705525071756_" x="417" y="86.4" width="32.1" height="39.3"/>
							</defs>
							<clipPath id="SVGID_00000080886490460582509940000015738418237069548191_">
								<use xlink:href="#SVGID_00000176750556197908490770000010343754705525071756_"  style="overflow:visible;"/>
							</clipPath>
							<g style="clip-path:url(#SVGID_00000080886490460582509940000015738418237069548191_);">
								
									<image style="overflow:visible;" width="135" height="165" xlink:href="3DB030A73D356396.jpg"  transform="matrix(0.24 0 0 0.24 416.88 86.16)">
								</image>
							</g>
						</g>
					</g>
				</g>
			</g>
			<g>
				<defs>
					<path id="SVGID_00000046339770517582445150000012686987896328248754_" d="M418.3,124.2c0.6-2.4,1.5-5.4,2.5-7.3
						c0.8-1.4,1.5-1.8,3.1-2.2l24.3-6.3v-7.7L418.3,88v7.3l22.5,8.9L421,108c-1.7,0.3-2.7,1.6-2.7,3.2V124.2 M448.8,100.3v8.5
						l-24.8,6.4c-1.5,0.4-2.1,0.7-2.7,1.9c-1,1.9-2,5.1-2.6,7.9l-0.9-0.2v-13.7c0-1.7,1.2-3.3,3.2-3.7l17.9-3.4l-21.1-8.4v-8.5
						L448.8,100.3"/>
				</defs>
				<clipPath id="SVGID_00000001623852400804935490000009628012236939279771_">
					<use xlink:href="#SVGID_00000046339770517582445150000012686987896328248754_"  style="overflow:visible;"/>
				</clipPath>
				<g style="clip-path:url(#SVGID_00000001623852400804935490000009628012236939279771_);">
					<defs>
						<rect id="SVGID_00000183970202491375917080000011132245192495361978_" x="415.2" y="84.8" width="35.1" height="42.7"/>
					</defs>
					<clipPath id="SVGID_00000147935387218018857540000014659207585146159549_">
						<use xlink:href="#SVGID_00000183970202491375917080000011132245192495361978_"  style="overflow:visible;"/>
					</clipPath>
					<g style="clip-path:url(#SVGID_00000147935387218018857540000014659207585146159549_);">
						
							<image style="overflow:visible;" width="34" height="28" xlink:href="3DB030A73D35639A.jpg"  transform="matrix(0 -1.2547 1.2523 0 415.2127 127.4995)">
						</image>
					</g>
				</g>
			</g>
			<g>
				<defs>
					<polyline id="SVGID_00000005985362167431355510000010393434928962781363_" points="448.2,82.8 448.2,89.8 418.3,83.3 
						418.3,76.4 448.2,82.8 					"/>
				</defs>
				<clipPath id="SVGID_00000176040049133805884620000017444749175404164743_">
					<use xlink:href="#SVGID_00000005985362167431355510000010393434928962781363_"  style="overflow:visible;"/>
				</clipPath>
				
					<linearGradient id="SVGID_00000049907507448894703520000002603749765231012752_" gradientUnits="userSpaceOnUse" x1="-73.8942" y1="558.3336" x2="-71.3127" y2="558.3336" gradientTransform="matrix(-12.016 0 0 12.016 -439.1284 -6625.8618)">
					<stop  offset="0" style="stop-color:#808083"/>
					<stop  offset="0.3901" style="stop-color:#CFD1D2"/>
					<stop  offset="0.6374" style="stop-color:#E5E5E5"/>
					<stop  offset="0.7417" style="stop-color:#C1C2C3"/>
					<stop  offset="0.8426" style="stop-color:#A6A8A9"/>
					<stop  offset="0.9318" style="stop-color:#96989A"/>
					<stop  offset="1" style="stop-color:#909294"/>
				</linearGradient>
				
					<rect x="418.3" y="76.4" style="clip-path:url(#SVGID_00000176040049133805884620000017444749175404164743_);fill:url(#SVGID_00000049907507448894703520000002603749765231012752_);" width="29.9" height="13.4"/>
			</g>
			<g>
				<defs>
					<path id="SVGID_00000140704097441847964160000017391687502019142839_" d="M417.8,83.8l31,6.7v-8.1l-31-6.7V83.8 M449.3,81.9
						v9.2l-32.1-6.9V75L449.3,81.9"/>
				</defs>
				<clipPath id="SVGID_00000016766888508429146010000001391684928314141348_">
					<use xlink:href="#SVGID_00000140704097441847964160000017391687502019142839_"  style="overflow:visible;"/>
				</clipPath>
				<g style="clip-path:url(#SVGID_00000016766888508429146010000001391684928314141348_);">
					<g>
						<defs>
							<rect id="SVGID_00000117672905156927294290000007955961477388102048_" x="417" y="75" width="32.1" height="16.1"/>
						</defs>
						<clipPath id="SVGID_00000069389590864261366060000000430092792727073421_">
							<use xlink:href="#SVGID_00000117672905156927294290000007955961477388102048_"  style="overflow:visible;"/>
						</clipPath>
						<g style="clip-path:url(#SVGID_00000069389590864261366060000000430092792727073421_);">
							<defs>
								<rect id="SVGID_00000009581689274673316300000004439759798349331630_" x="417" y="75" width="32.1" height="16.1"/>
							</defs>
							<clipPath id="SVGID_00000138558065508463576320000000927987059964313748_">
								<use xlink:href="#SVGID_00000009581689274673316300000004439759798349331630_"  style="overflow:visible;"/>
							</clipPath>
							<g style="clip-path:url(#SVGID_00000138558065508463576320000000927987059964313748_);">
								
									<image style="overflow:visible;" width="135" height="68" xlink:href="3DB030A73D35639D.jpg"  transform="matrix(0.24 0 0 0.24 416.88 74.88)">
								</image>
							</g>
						</g>
					</g>
				</g>
			</g>
			<g>
				<defs>
					<path id="SVGID_00000145028441032818039940000007191981273607453066_" d="M418.3,83.3l29.9,6.4v-6.9l-29.9-6.4V83.3
						 M448.8,82.4v8.1l-31-6.7v-8L448.8,82.4"/>
				</defs>
				<clipPath id="SVGID_00000026885574390936215680000007724533628959419541_">
					<use xlink:href="#SVGID_00000145028441032818039940000007191981273607453066_"  style="overflow:visible;"/>
				</clipPath>
				<g style="clip-path:url(#SVGID_00000026885574390936215680000007724533628959419541_);">
					<defs>
						<rect id="SVGID_00000042006979111895888650000002963309134457528201_" x="415.2" y="73.6" width="35.1" height="19"/>
					</defs>
					<clipPath id="SVGID_00000066507495657500299630000013970325378674882443_">
						<use xlink:href="#SVGID_00000042006979111895888650000002963309134457528201_"  style="overflow:visible;"/>
					</clipPath>
					<g style="clip-path:url(#SVGID_00000066507495657500299630000013970325378674882443_);">
						
							<image style="overflow:visible;" width="15" height="28" xlink:href="3DB030A73D35639E.jpg"  transform="matrix(0 -1.2686 1.2523 0 415.2127 92.6725)">
						</image>
					</g>
				</g>
			</g>
			<g>
				<defs>
					<path id="SVGID_00000087393819405580635210000012779522237657130119_" d="M448.7,67.9c0,3.4-0.7,6.6-1.4,8.3l-5.7-1.2
						c0.8-1.8,1.7-4,1.7-7.6l0-0.3c0-2.6-1.2-5.3-3.6-5.4c-1.8,0-2.9,1.6-4.4,4.5c-1.4,2.9-3.8,6.8-7.9,6.7c-5.7,0-9.7-5.4-9.7-13.1
						c0-3,0.6-5.3,1.2-6.9l5.5,1.2c-1,2.5-1.3,4.7-1.3,6.2c0,0.7,0,1.2,0.1,1.5c0.4,2.8,1.9,3.9,3.1,3.9c1.8,0,2.8-2,4.1-4.3
						c1.7-3.3,3.7-7,8.3-7C444.8,54.4,448.7,59.7,448.7,67.9"/>
				</defs>
				<clipPath id="SVGID_00000057107297814201241980000005711638088697234598_">
					<use xlink:href="#SVGID_00000087393819405580635210000012779522237657130119_"  style="overflow:visible;"/>
				</clipPath>
				
					<linearGradient id="SVGID_00000094595808148260832890000001132182406362338216_" gradientUnits="userSpaceOnUse" x1="-73.7257" y1="557.051" x2="-71.1434" y2="557.051" gradientTransform="matrix(-12.422 0 0 12.422 -466.5462 -6855.0674)">
					<stop  offset="0" style="stop-color:#808083"/>
					<stop  offset="0.3901" style="stop-color:#CFD1D2"/>
					<stop  offset="0.6374" style="stop-color:#E5E5E5"/>
					<stop  offset="0.7417" style="stop-color:#C1C2C3"/>
					<stop  offset="0.8426" style="stop-color:#A6A8A9"/>
					<stop  offset="0.9318" style="stop-color:#96989A"/>
					<stop  offset="1" style="stop-color:#909294"/>
				</linearGradient>
				
					<rect x="417.7" y="53" style="clip-path:url(#SVGID_00000057107297814201241980000005711638088697234598_);fill:url(#SVGID_00000094595808148260832890000001132182406362338216_);" width="31" height="23.2"/>
			</g>
			<g>
				<defs>
					<path id="SVGID_00000120539689275939670930000001076874961332125607_" d="M440.8,75.4l6.8,1.5c0.9-1.9,1.6-5.4,1.7-9
						c0-8.5-4.2-14-10.6-14c-8.2,0-8.6,11.4-12.3,11.3c-1.1,0-2.3-1.1-2.6-3.4c0-0.3-0.1-0.8-0.1-1.4c0-1.6,0.3-3.9,1.5-6.6
						l-6.6-1.4c-0.7,1.9-1.4,4.4-1.4,7.5c0,8,4.2,13.6,10.3,13.6c4.5,0,7-4,8.4-7.1c1.5-3.1,2.5-4.2,3.9-4.2c2.1,0,3,2.5,3,4.8
						c0,0.1,0,0.2,0,0.3C442.8,71.3,441.7,73.6,440.8,75.4 M449.8,67.9L449.8,67.9c0,3.4-0.7,7-1.7,9.2l-0.2,0.4l-7.9-1.7l0.4-0.8
						c0.8-1.8,1.8-3.9,1.8-7.5l0-0.3c0-1.6-0.6-4.3-2.5-4.3c-1,0-1.8,0.6-3.4,3.9c-1.6,3.2-4.2,7.4-8.9,7.4
						c-6.3-0.1-10.8-5.9-10.8-14.2c0-3.4,0.8-6.1,1.4-7.7l0.2-0.4l7.7,1.6l-0.3,0.6c-1.2,2.6-1.4,4.9-1.4,6.3c0,0.6,0,1,0.1,1.3
						c0.3,2,1.2,2.9,2.1,2.9c1.1,0,2-1.7,3.1-3.7c1.7-3.2,4-7.6,9.2-7.6C445.4,53.4,449.8,59.1,449.8,67.9"/>
				</defs>
				<clipPath id="SVGID_00000183945184700674707000000005619921170280891026_">
					<use xlink:href="#SVGID_00000120539689275939670930000001076874961332125607_"  style="overflow:visible;"/>
				</clipPath>
				<g style="clip-path:url(#SVGID_00000183945184700674707000000005619921170280891026_);">
					<g>
						<defs>
							<rect id="SVGID_00000065067110550133278540000014725962816570739126_" x="416.4" y="51.7" width="33.1" height="25.7"/>
						</defs>
						<clipPath id="SVGID_00000049204863163120057650000006041614270392037521_">
							<use xlink:href="#SVGID_00000065067110550133278540000014725962816570739126_"  style="overflow:visible;"/>
						</clipPath>
						<g style="clip-path:url(#SVGID_00000049204863163120057650000006041614270392037521_);">
							<defs>
								<rect id="SVGID_00000089566405527788544380000014465809032716343705_" x="416.4" y="51.7" width="33.1" height="25.7"/>
							</defs>
							<clipPath id="SVGID_00000171682611400267673290000016641067652455366021_">
								<use xlink:href="#SVGID_00000089566405527788544380000014465809032716343705_"  style="overflow:visible;"/>
							</clipPath>
							<g style="clip-path:url(#SVGID_00000171682611400267673290000016641067652455366021_);">
								
									<image style="overflow:visible;" width="139" height="108" xlink:href="3DB030A73D35639C.jpg"  transform="matrix(0.24 0 0 0.24 416.4 51.6)">
								</image>
							</g>
						</g>
					</g>
				</g>
			</g>
			<g>
				<defs>
					<path id="SVGID_00000150811572792052217740000001031425616036897188_" d="M441.6,75l5.7,1.2c0.7-1.8,1.4-4.9,1.4-8.3
						c0-8.2-4-13.4-10.1-13.5c-4.6,0-6.5,3.7-8.3,7c-1.2,2.3-2.3,4.3-4.1,4.3c-1.2,0-2.8-1.1-3.1-3.9c0-0.3-0.1-0.8-0.1-1.5
						c0-1.5,0.2-3.7,1.3-6.2l-5.5-1.2c-0.5,1.6-1.2,3.9-1.2,6.9c0,7.6,4,13,9.7,13.1c4.2,0,6.5-3.8,7.9-6.7c1.4-2.9,2.5-4.5,4.4-4.5
						c2.4,0,3.5,2.7,3.6,5.4l0,0.3C443.3,71,442.4,73.2,441.6,75 M449.3,67.9c0,3.6-0.8,7.1-1.7,9l-6.8-1.5c0.8-1.8,2-4.1,2-7.9
						c0-0.1,0-0.2,0-0.3c0-2.3-1-4.8-3-4.8c-1.4,0-2.3,1-3.9,4.2c-1.5,3.1-4,7.1-8.4,7.1c-6-0.1-10.3-5.7-10.3-13.6
						c0-3.1,0.7-5.6,1.4-7.5l6.6,1.4c-1.2,2.6-1.5,5-1.5,6.6c0,0.6,0,1.1,0.1,1.4c0.3,2.3,1.5,3.4,2.6,3.4
						c3.7,0.1,4.1-11.3,12.3-11.3C445.1,53.9,449.3,59.4,449.3,67.9"/>
				</defs>
				<clipPath id="SVGID_00000102543823805396866150000013631608065096761002_">
					<use xlink:href="#SVGID_00000150811572792052217740000001031425616036897188_"  style="overflow:visible;"/>
				</clipPath>
				<g style="clip-path:url(#SVGID_00000102543823805396866150000013631608065096761002_);">
					<defs>
						<rect id="SVGID_00000026122939527898794670000003571522089663179652_" x="415.2" y="50" width="36.3" height="28.7"/>
					</defs>
					<clipPath id="SVGID_00000178893755570824002880000015854033885845480107_">
						<use xlink:href="#SVGID_00000026122939527898794670000003571522089663179652_"  style="overflow:visible;"/>
					</clipPath>
					<g style="clip-path:url(#SVGID_00000178893755570824002880000015854033885845480107_);">
						
							<image style="overflow:visible;" width="23" height="29" xlink:href="3DB030A73D35639B.jpg"  transform="matrix(0 -1.2465 1.2519 0 415.2127 78.6805)">
						</image>
					</g>
				</g>
			</g>
			<g>
				<defs>
					<path id="SVGID_00000012457844021191403870000015626379746700496520_" d="M438.3,34.5l-14.2,2.9l14.2,5.2V34.5 M448.2,26.1v6.4
						l-4.6,1v11.1l4.6,1.7v7.3l-28-11.8c-1.2-0.5-1.9-1.6-1.9-2.9v-6.4L448.2,26.1"/>
				</defs>
				<clipPath id="SVGID_00000002379812535662053790000018261385325901582747_">
					<use xlink:href="#SVGID_00000012457844021191403870000015626379746700496520_"  style="overflow:visible;"/>
				</clipPath>
				
					<linearGradient id="SVGID_00000134216566226773238970000009264584073163327916_" gradientUnits="userSpaceOnUse" x1="-73.8942" y1="556.1182" x2="-71.3127" y2="556.1182" gradientTransform="matrix(-12.016 0 0 12.016 -439.1284 -6642.5493)">
					<stop  offset="0" style="stop-color:#808083"/>
					<stop  offset="0.3901" style="stop-color:#CFD1D2"/>
					<stop  offset="0.6374" style="stop-color:#E5E5E5"/>
					<stop  offset="0.7417" style="stop-color:#C1C2C3"/>
					<stop  offset="0.8426" style="stop-color:#A6A8A9"/>
					<stop  offset="0.9318" style="stop-color:#96989A"/>
					<stop  offset="1" style="stop-color:#909294"/>
				</linearGradient>
				
					<rect x="418.3" y="26.1" style="clip-path:url(#SVGID_00000002379812535662053790000018261385325901582747_);fill:url(#SVGID_00000134216566226773238970000009264584073163327916_);" width="29.9" height="27.4"/>
			</g>
			<g>
				<defs>
					<path id="SVGID_00000008147323288921101590000017430314260943976357_" d="M428.1,37.7l9.1,3.3v-5.2L428.1,37.7 M437.8,35.1v6.7
						l-11.6-4.3L437.8,35.1 M444.1,44.2V33.8l4.6-1v-7.5l-31,6.5v6.9c0,1.5,0.9,2.8,2.3,3.4l28.7,12.1v-8.5L444.1,44.2 M449.3,24.7
						v8.6l-4.6,1v9.5l4.6,1.7v9.7l-29.5-12.4c-1.6-0.7-2.6-2.2-2.6-3.9v-7.3L449.3,24.7"/>
				</defs>
				<clipPath id="SVGID_00000134251453939796673560000017877099746017537709_">
					<use xlink:href="#SVGID_00000008147323288921101590000017430314260943976357_"  style="overflow:visible;"/>
				</clipPath>
				<g style="clip-path:url(#SVGID_00000134251453939796673560000017877099746017537709_);">
					<g>
						<defs>
							<rect id="SVGID_00000030466131304770473470000010761898574373354379_" x="417" y="24.7" width="32.1" height="30.4"/>
						</defs>
						<clipPath id="SVGID_00000075156609974993518100000014750974210208770462_">
							<use xlink:href="#SVGID_00000030466131304770473470000010761898574373354379_"  style="overflow:visible;"/>
						</clipPath>
						<g style="clip-path:url(#SVGID_00000075156609974993518100000014750974210208770462_);">
							<defs>
								<rect id="SVGID_00000006679167733115183370000010227834188957546371_" x="417" y="24.7" width="32.1" height="30.4"/>
							</defs>
							<clipPath id="SVGID_00000119095218302499820870000002050171731885357715_">
								<use xlink:href="#SVGID_00000006679167733115183370000010227834188957546371_"  style="overflow:visible;"/>
							</clipPath>
							<g style="clip-path:url(#SVGID_00000119095218302499820870000002050171731885357715_);">
								
									<image style="overflow:visible;" width="135" height="128" xlink:href="3DB030A73D356395.jpg"  transform="matrix(0.24 0 0 0.24 416.88 24.48)">
								</image>
							</g>
						</g>
					</g>
				</g>
			</g>
			<g>
				<defs>
					<path id="SVGID_00000176034717956939828540000009251219347980774025_" d="M426.1,37.6l11.6,4.3v-6.7L426.1,37.6 M438.3,34.5
						v8.1l-14.2-5.2L438.3,34.5 M443.6,44.5V33.4l4.6-1v-6.4l-29.9,6.3v6.4c0,1.3,0.7,2.4,1.9,2.9l28,11.8v-7.3L443.6,44.5
						 M448.8,25.4v7.5l-4.6,1v10.3l4.6,1.7v8.5L420,42.2c-1.4-0.6-2.3-1.9-2.3-3.4v-6.9L448.8,25.4"/>
				</defs>
				<clipPath id="SVGID_00000166660896099629202080000017331888394699478199_">
					<use xlink:href="#SVGID_00000176034717956939828540000009251219347980774025_"  style="overflow:visible;"/>
				</clipPath>
				<g style="clip-path:url(#SVGID_00000166660896099629202080000017331888394699478199_);">
					<defs>
						<rect id="SVGID_00000096771576607462159450000018387318743519439255_" x="415.2" y="23.9" width="35.1" height="32.4"/>
					</defs>
					<clipPath id="SVGID_00000088096173661405791160000002633728313989963170_">
						<use xlink:href="#SVGID_00000096771576607462159450000018387318743519439255_"  style="overflow:visible;"/>
					</clipPath>
					<g style="clip-path:url(#SVGID_00000088096173661405791160000002633728313989963170_);">
						
							<image style="overflow:visible;" width="26" height="28" xlink:href="3DB030A73D356397.jpg"  transform="matrix(0 -1.2462 1.2523 0 415.2127 56.2966)">
						</image>
					</g>
				</g>
			</g>
		</g>
		<path class="st1" d="M92.4,91.5c0,0.3-0.1,0.7-0.3,1c-0.5,0.7-1.5,0.9-2.3,0.4c-0.5-0.4-1.1-0.7-1.8-0.9c-0.6-0.2-1.3-0.3-2-0.3
			c-0.7,0-1.4,0.1-2,0.3c-0.6,0.2-1.2,0.5-1.8,0.9c-0.7,0.5-1.7,0.4-2.3-0.3c-0.2-0.3-0.3-0.6-0.3-1c0-0.5,0.2-1,0.6-1.3
			c0.8-0.6,1.7-1.1,2.7-1.4c1-0.3,2-0.5,3.1-0.5c1.1,0,2.1,0.2,3.1,0.5c1,0.3,1.9,0.8,2.7,1.4C92.1,90.5,92.4,91,92.4,91.5
			 M95.3,85.8c0-0.5-0.3-1.1-0.8-1.4c-2.5-1.5-5.4-2.4-8.5-2.4c-3.1,0-6,0.9-8.5,2.5c-0.5,0.3-0.8,0.8-0.8,1.4
			c0,0.3,0.1,0.6,0.2,0.8c0.5,0.8,1.5,1,2.2,0.5c2-1.2,4.3-2,6.8-2c2.5,0,4.8,0.7,6.8,1.9c0.8,0.5,1.8,0.2,2.2-0.5
			C95.2,86.4,95.3,86.1,95.3,85.8 M98.3,79.9c0-0.6-0.3-1.1-0.8-1.4c-3.4-2-7.4-3.1-11.6-3c-4.2,0-8.1,1.2-11.5,3.2
			c-0.5,0.3-0.8,0.8-0.8,1.4c0,0.3,0.1,0.6,0.2,0.8c0.5,0.8,1.5,1,2.2,0.6c2.9-1.7,6.3-2.7,9.9-2.7c3.6,0,7,0.9,9.9,2.6
			c0.8,0.5,1.8,0.2,2.2-0.6C98.2,80.4,98.3,80.2,98.3,79.9 M101.3,74c0-0.6-0.3-1.1-0.8-1.4c-4.3-2.4-9.3-3.8-14.6-3.8
			c-5.3,0-10.3,1.5-14.6,3.9c-0.5,0.3-0.8,0.9-0.8,1.4c0,0.3,0.1,0.5,0.2,0.8c0.4,0.8,1.4,1,2.2,0.6c3.8-2.2,8.3-3.5,13-3.5
			c4.7,0,9.2,1.2,13,3.3c0.8,0.4,1.8,0.2,2.2-0.6C101.3,74.5,101.3,74.2,101.3,74"/>
		<g>
			<g>
				<defs>
					<path id="SVGID_00000152980612349836358380000008512922352174244542_" d="M67.7,106.9c-4,0-7.2,3.3-7.2,7.2v29.4
						c0,4,3.2,7.2,7.2,7.2h43.9c4,0,7.2-3.2,7.2-7.2v-29.4c0-4-3.3-7.2-7.2-7.2H67.7z"/>
				</defs>
				<clipPath id="SVGID_00000148651662022828045950000005824469856400338868_">
					<use xlink:href="#SVGID_00000152980612349836358380000008512922352174244542_"  style="overflow:visible;"/>
				</clipPath>
				
					<linearGradient id="SVGID_00000128487514565729122390000016793129913853619894_" gradientUnits="userSpaceOnUse" x1="-57.8568" y1="573.9991" x2="-55.9689" y2="573.9991" gradientTransform="matrix(30.8975 0 0 -30.8975 1848.123 17863.9863)">
					<stop  offset="0" style="stop-color:#B8BABC"/>
					<stop  offset="0.2472" style="stop-color:#D4D6D7"/>
					<stop  offset="0.5" style="stop-color:#C3C5C7"/>
					<stop  offset="0.75" style="stop-color:#D4D6D7"/>
					<stop  offset="1" style="stop-color:#B8BABC"/>
				</linearGradient>
				
					<rect x="60.5" y="106.9" style="clip-path:url(#SVGID_00000148651662022828045950000005824469856400338868_);fill:url(#SVGID_00000128487514565729122390000016793129913853619894_);" width="58.3" height="43.9"/>
			</g>
			<path class="st20" d="M111.6,150.8H67.7c-4,0-7.2-3.3-7.2-7.2v-29.4c0-4,3.3-7.2,7.2-7.2h43.9c4,0,7.2,3.3,7.2,7.2v29.4
				C118.8,147.5,115.6,150.8,111.6,150.8z"/>
			<line class="st21" x1="60.7" y1="122.6" x2="79.5" y2="122.6"/>
			<line class="st21" x1="60.5" y1="135.5" x2="79.1" y2="135.6"/>
			<line class="st21" x1="99.3" y1="122.6" x2="118.7" y2="122.6"/>
			<line class="st21" x1="79.6" y1="111.3" x2="99.4" y2="111.3"/>
			<line class="st21" x1="79.5" y1="146.9" x2="99.5" y2="146.9"/>
			<line class="st21" x1="99.8" y1="135.5" x2="118.4" y2="135.6"/>
			<line class="st21" x1="79.3" y1="106.9" x2="79.3" y2="151.1"/>
			<line class="st21" x1="99.8" y1="122.6" x2="99.8" y2="151.1"/>
			<line class="st21" x1="99.8" y1="106.9" x2="99.8" y2="111.9"/>
		</g>
	</g>
</g>
</svg>
