<?xml version="1.0" encoding="utf-8"?>
<!-- Generator: Adobe Illustrator 28.0.0, SVG Export Plug-In . SVG Version: 6.00 Build 0)  -->
<svg version="1.1" id="Layer_1" xmlns="http://www.w3.org/2000/svg" xmlns:xlink="http://www.w3.org/1999/xlink" x="0px" y="0px"
	 viewBox="0 0 479 303" style="enable-background:new 0 0 479 303;" xml:space="preserve">
<style type="text/css">
	.st0{fill:#2F2F2F;}
	.st1{fill:#EE7623;}
	.st2{fill:none;stroke:#EE7623;stroke-width:0.9632;stroke-miterlimit:10;}
</style>
<g>
	<rect class="st0" width="479" height="303"/>
	<g>
		<g>
			<rect x="241.1" y="69.6" class="st1" width="24" height="5"/>
			<path class="st1" d="M235.6,73.6c0.5,0.6,0.9,1,1.6,1c1.2,0,2.1-1.1,1.5-2.6l-2.9-7.8h-7.6L235.6,73.6z"/>
			<path class="st1" d="M240.7,112.7c0,6.7,5,12,12.3,12s12.7-5.3,12.7-12.5c0-4.4-2.1-8-5.3-10.4l-2.9,3.5c2.3,1.7,3.4,4.1,3.4,7
				c0,3.9-2.2,6.5-5.8,7.3v-16c0-1.5-0.7-2.5-2.5-2.5C247.1,101.1,240.7,105.1,240.7,112.7z M250.6,119.6c-3.3-0.7-5.3-3.3-5.3-6.9
				c0-3.6,2-6,5.3-6.5V119.6z"/>
			<path class="st1" d="M255.9,92.2V79.7h-4.5v12.5c-3.8,0.1-6-2.4-6-5.9c0-1.9,0.7-3.5,1.5-4.8l-3.6-3.2c-1.7,2.3-2.6,4.8-2.6,7.8
				c0,6.6,4.4,11.1,10.7,11.1h13.8v-5H255.9z"/>
			<path class="st1" d="M271.9,92.7c-0.3-0.5-0.8-0.8-1.4-0.8c-1,0-1.6,0.8-1.6,2v2.2v0.6v0.5h6.5v-0.5v-0.6V94
				c0-1.4-0.7-2.2-1.8-2.2C272.8,91.7,272.2,92.2,271.9,92.7z M269.8,94.1c0-0.6,0.3-1,0.9-1s0.9,0.4,0.9,0.9v2.1h-1.8V94.1z
				 M274.4,94.1v2.1h-1.8v-2.3c0-0.6,0.3-1,0.8-1C274,92.9,274.4,93.4,274.4,94.1z"/>
			<rect x="268.9" y="74.2" class="st1" width="6.5" height="1.1"/>
			<path class="st1" d="M268.9,69.6v1.4l2.7,2.5c0.4,0.3,0.7,0.3,1.1,0l2.7-2.5v-1.3l-3.3,3L268.9,69.6z"/>
			<path class="st1" d="M273.7,78.4l-4.4,3.2c-0.3,0.2-0.4,0.4-0.4,0.7c0,0.4,0.3,0.6,0.7,0.6h5.8v-1.1l-4.8,0l4.4-3.2
				c0.3-0.2,0.4-0.5,0.4-0.8c0-0.4-0.3-0.6-0.7-0.6h-5.8v1.1L273.7,78.4z"/>
			<path class="st1" d="M268.9,87.5c0,0.4,0.2,0.7,0.6,0.8l5.9,2.5v-1.1l-1.3-0.5v-3.4l1.3-0.5v-1.2l-5.9,2.5
				C269.1,86.8,268.9,87.1,268.9,87.5z M273.1,88.8l-3.1-1.3l3.1-1.3V88.8z"/>
		</g>
		<g>
			<path class="st2" d="M118.6,1.1l96.8,123.7c12.9,16.7,25.7,27,45,27c33.4,0,59.2-32.2,43.7-73.3L275.6,1.2"/>
		</g>
	</g>
</g>
</svg>
