<?xml version="1.0" encoding="utf-8"?>
<!-- Generator: Adobe Illustrator 28.0.0, SVG Export Plug-In . SVG Version: 6.00 Build 0)  -->
<svg version="1.1" id="Layer_1" xmlns="http://www.w3.org/2000/svg" xmlns:xlink="http://www.w3.org/1999/xlink" x="0px" y="0px"
	 viewBox="0 0 474 300" style="enable-background:new 0 0 474 300;" xml:space="preserve">
<style type="text/css">
	.st0{fill:url(#SVGID_1_);}
	.st1{fill:none;}
	.st2{fill:#EE7623;}
	.st3{fill:none;stroke:#EE7623;stroke-width:0.9633;stroke-miterlimit:10;}
	
		.st4{clip-path:url(#SVGID_00000137835997699365993170000007580757946161405347_);fill:url(#SVGID_00000005226945183163363340000010459081464758069135_);}
	.st5{fill:none;stroke:#3A393A;stroke-width:0.8024;stroke-miterlimit:10;}
	.st6{fill:none;stroke:#231F20;stroke-width:1.0704;stroke-miterlimit:10;}
	
		.st7{clip-path:url(#SVGID_00000177484930442462967400000014540811274304904634_);fill:url(#SVGID_00000041994608219527181930000011386038908144361893_);}
	.st8{clip-path:url(#SVGID_00000054252449155535220580000007500017235175835794_);}
	.st9{clip-path:url(#SVGID_00000073695025637757654330000004400697182199271558_);}
	.st10{clip-path:url(#SVGID_00000024721485562875359640000004180760980177909895_);}
	
		.st11{clip-path:url(#SVGID_00000000187635075960116910000008290984543578772097_);fill:url(#SVGID_00000021821959568120142440000005883408171852791715_);}
	.st12{clip-path:url(#SVGID_00000065787233990081361490000009627090854909546935_);}
	.st13{clip-path:url(#SVGID_00000012436196047198011960000004163614490862035862_);}
	.st14{clip-path:url(#SVGID_00000041291125558668337050000008459591718424800433_);}
	
		.st15{clip-path:url(#SVGID_00000122704259423029405830000013326790886443478938_);fill:url(#SVGID_00000151546021282901190650000016314795246683820701_);}
	.st16{clip-path:url(#SVGID_00000079479627723647653660000008261562308671221932_);}
	.st17{clip-path:url(#SVGID_00000064334096732768813640000011658182103483700924_);}
	.st18{clip-path:url(#SVGID_00000016796777329737401030000000378247098582768009_);}
	
		.st19{clip-path:url(#SVGID_00000015355241125342489550000003100544070367598503_);fill:url(#SVGID_00000003789793137857233980000010309917354516991883_);}
	.st20{clip-path:url(#SVGID_00000062884284361523111400000009563179357947510715_);}
	.st21{clip-path:url(#SVGID_00000019671817526438053450000001081544505575007406_);}
	.st22{clip-path:url(#SVGID_00000009578017099263454630000001088491620839617967_);}
	.st23{fill:#959595;}
</style>
<g id="Camada_1">
</g>
<g id="Camada_2">
</g>
<g>
	<linearGradient id="SVGID_1_" gradientUnits="userSpaceOnUse" x1="-0.1483" y1="150" x2="474" y2="150">
		<stop  offset="0.3049" style="stop-color:#CFD1D2"/>
		<stop  offset="0.5938" style="stop-color:#E5E5E5"/>
	</linearGradient>
	<rect x="-0.1" class="st0" width="474.1" height="300"/>
	<rect x="-0.1" class="st1" width="474.1" height="300"/>
	<g>
		<g>
			<rect x="238.6" y="68.7" class="st2" width="24" height="5"/>
			<path class="st2" d="M233,72.7c0.5,0.6,0.9,1,1.6,1c1.2,0,2.1-1.1,1.5-2.6l-2.9-7.8h-7.6L233,72.7z"/>
			<path class="st2" d="M238.1,111.8c0,6.7,5,12,12.3,12c7.3,0,12.7-5.3,12.7-12.5c0-4.4-2.1-8-5.3-10.4l-2.9,3.5
				c2.3,1.7,3.4,4.1,3.4,7c0,3.9-2.2,6.5-5.8,7.3v-16c0-1.5-0.7-2.5-2.5-2.5C244.5,100.2,238.1,104.2,238.1,111.8z M248,118.7
				c-3.3-0.7-5.3-3.3-5.3-6.9c0-3.6,2-6,5.3-6.5V118.7z"/>
			<path class="st2" d="M253.3,91.3V78.8h-4.5v12.5c-3.8,0.1-6-2.4-6-5.9c0-1.9,0.7-3.5,1.5-4.8l-3.6-3.2c-1.7,2.3-2.6,4.8-2.6,7.8
				c0,6.6,4.4,11.1,10.7,11.1h13.8v-5H253.3z"/>
			<path class="st2" d="M269.3,91.8c-0.3-0.5-0.8-0.8-1.4-0.8c-1,0-1.6,0.8-1.6,2v2.2v0.6v0.5h6.5v-0.5v-0.6v-2.1
				c0-1.4-0.7-2.2-1.8-2.2C270.2,90.8,269.7,91.3,269.3,91.8z M267.2,93.2c0-0.6,0.3-1,0.9-1s0.9,0.4,0.9,0.9v2.1h-1.8V93.2z
				 M271.8,93.2v2.1H270V93c0-0.6,0.3-1,0.8-1C271.4,92,271.8,92.5,271.8,93.2z"/>
			<rect x="266.3" y="73.3" class="st2" width="6.5" height="1.1"/>
			<path class="st2" d="M266.3,68.7V70l2.7,2.5c0.4,0.3,0.7,0.3,1.1,0l2.7-2.5v-1.3l-3.3,3L266.3,68.7z"/>
			<path class="st2" d="M271.1,77.5l-4.4,3.2c-0.3,0.2-0.4,0.4-0.4,0.7c0,0.4,0.3,0.6,0.7,0.6h5.8V81l-4.8,0l4.4-3.2
				c0.3-0.2,0.4-0.5,0.4-0.8c0-0.4-0.3-0.6-0.7-0.6h-5.8v1.1L271.1,77.5z"/>
			<path class="st2" d="M266.3,86.6c0,0.4,0.2,0.7,0.6,0.8l5.9,2.5v-1.1l-1.3-0.5V85l1.3-0.5v-1.2l-5.9,2.5
				C266.5,85.9,266.3,86.2,266.3,86.6z M270.5,87.9l-3.1-1.3l3.1-1.3V87.9z"/>
		</g>
		<g>
			<path class="st3" d="M116,0.3l96.8,123.7c12.9,16.7,25.7,27,45,27c33.4,0,59.2-32.2,43.7-73.3L273,0.3"/>
		</g>
		<path class="st2" d="M92.2,91.8c0,0.3-0.1,0.7-0.3,1c-0.5,0.7-1.5,0.9-2.3,0.4c-0.5-0.4-1.1-0.7-1.8-0.9c-0.6-0.2-1.3-0.3-2-0.3
			c-0.7,0-1.4,0.1-2,0.3c-0.6,0.2-1.2,0.5-1.8,0.9c-0.7,0.5-1.7,0.4-2.3-0.3c-0.2-0.3-0.3-0.6-0.3-1c0-0.5,0.2-1,0.6-1.3
			c0.8-0.6,1.7-1.1,2.7-1.4c1-0.3,2-0.5,3.1-0.5c1.1,0,2.1,0.2,3.1,0.5c1,0.3,1.9,0.8,2.7,1.4C92,90.8,92.2,91.3,92.2,91.8
			 M95.1,86.1c0-0.5-0.3-1.1-0.8-1.4c-2.5-1.5-5.4-2.4-8.5-2.4c-3.1,0-6,0.9-8.5,2.5c-0.5,0.3-0.8,0.8-0.8,1.4
			c0,0.3,0.1,0.6,0.2,0.8c0.5,0.8,1.5,1,2.2,0.5c2-1.2,4.3-2,6.8-2c2.5,0,4.8,0.7,6.8,1.9c0.8,0.5,1.8,0.2,2.2-0.5
			C95,86.7,95.1,86.4,95.1,86.1 M98.1,80.1c0-0.6-0.3-1.1-0.8-1.4c-3.4-2-7.4-3.1-11.6-3c-4.2,0-8.1,1.2-11.5,3.2
			c-0.5,0.3-0.8,0.8-0.8,1.4c0,0.3,0.1,0.6,0.2,0.8c0.5,0.8,1.5,1,2.2,0.6c2.9-1.7,6.3-2.7,9.9-2.7c3.6,0,7,0.9,9.9,2.6
			c0.8,0.5,1.8,0.2,2.2-0.6C98.1,80.7,98.1,80.4,98.1,80.1 M101.2,74.2c0-0.6-0.3-1.1-0.8-1.4C96,70.4,91,69,85.7,69
			c-5.3,0-10.3,1.5-14.6,3.9c-0.5,0.3-0.8,0.9-0.8,1.4c0,0.3,0.1,0.5,0.2,0.8c0.4,0.8,1.4,1,2.2,0.6c3.8-2.2,8.3-3.5,13-3.5
			c4.7,0,9.2,1.2,13,3.3c0.8,0.4,1.8,0.2,2.2-0.6C101.1,74.8,101.2,74.5,101.2,74.2"/>
		<g>
			<g>
				<defs>
					<path id="SVGID_00000010268404354062203740000009188991913896591790_" d="M67.6,107.2c-4,0-7.2,3.3-7.2,7.2v29.4
						c0,4,3.2,7.2,7.2,7.2h43.9c4,0,7.2-3.2,7.2-7.2v-29.4c0-4-3.3-7.2-7.2-7.2H67.6z"/>
				</defs>
				<clipPath id="SVGID_00000078756840006091783250000009369618164291947146_">
					<use xlink:href="#SVGID_00000010268404354062203740000009188991913896591790_"  style="overflow:visible;"/>
				</clipPath>
				
					<linearGradient id="SVGID_00000078046445950722465100000017658194876146984345_" gradientUnits="userSpaceOnUse" x1="-57.8615" y1="573.9908" x2="-55.9736" y2="573.9908" gradientTransform="matrix(30.8975 0 0 -30.8975 1848.123 17863.9863)">
					<stop  offset="0" style="stop-color:#B8BABC"/>
					<stop  offset="0.2472" style="stop-color:#D4D6D7"/>
					<stop  offset="0.5" style="stop-color:#C3C5C7"/>
					<stop  offset="0.75" style="stop-color:#D4D6D7"/>
					<stop  offset="1" style="stop-color:#B8BABC"/>
				</linearGradient>
				
					<rect x="60.3" y="107.2" style="clip-path:url(#SVGID_00000078756840006091783250000009369618164291947146_);fill:url(#SVGID_00000078046445950722465100000017658194876146984345_);" width="58.3" height="43.9"/>
			</g>
			<path class="st5" d="M111.5,151H67.6c-4,0-7.2-3.3-7.2-7.2v-29.4c0-4,3.3-7.2,7.2-7.2h43.9c4,0,7.2,3.3,7.2,7.2v29.4
				C118.7,147.8,115.4,151,111.5,151z"/>
			<line class="st6" x1="60.6" y1="122.8" x2="79.3" y2="122.8"/>
			<line class="st6" x1="60.4" y1="135.8" x2="79" y2="135.9"/>
			<line class="st6" x1="99.1" y1="122.8" x2="118.6" y2="122.8"/>
			<line class="st6" x1="79.5" y1="111.6" x2="99.2" y2="111.6"/>
			<line class="st6" x1="79.3" y1="147.1" x2="99.4" y2="147.1"/>
			<line class="st6" x1="99.7" y1="135.8" x2="118.3" y2="135.9"/>
			<line class="st6" x1="79.1" y1="107.2" x2="79.1" y2="151.4"/>
			<line class="st6" x1="99.7" y1="122.8" x2="99.7" y2="151.4"/>
			<line class="st6" x1="99.7" y1="107.1" x2="99.7" y2="112.1"/>
		</g>
		<g>
			<g>
				<g>
					<defs>
						<path id="SVGID_00000148639147588149134930000004573237024764694952_" d="M429.2,100.7v7.7l-24.3,6.3
							c-1.5,0.4-2.3,0.8-3.1,2.2c-1.1,1.9-2,4.9-2.5,7.3v-13c0-1.6,1.1-2.8,2.7-3.2l19.8-3.7l-22.5-8.9v-7.3L429.2,100.7"/>
					</defs>
					<clipPath id="SVGID_00000124880525701606787050000010094179469729277624_">
						<use xlink:href="#SVGID_00000148639147588149134930000004573237024764694952_"  style="overflow:visible;"/>
					</clipPath>
					
						<linearGradient id="SVGID_00000094588436901008779030000000273499386953200527_" gradientUnits="userSpaceOnUse" x1="-72.3091" y1="559.5175" x2="-69.7276" y2="559.5175" gradientTransform="matrix(-12.016 0 0 12.016 -439.1284 -6616.9561)">
						<stop  offset="0" style="stop-color:#808083"/>
						<stop  offset="0.3901" style="stop-color:#CFD1D2"/>
						<stop  offset="0.6374" style="stop-color:#E5E5E5"/>
						<stop  offset="0.7417" style="stop-color:#C1C2C3"/>
						<stop  offset="0.8426" style="stop-color:#A6A8A9"/>
						<stop  offset="0.9318" style="stop-color:#96989A"/>
						<stop  offset="1" style="stop-color:#909294"/>
					</linearGradient>
					
						<rect x="399.3" y="88.1" style="clip-path:url(#SVGID_00000124880525701606787050000010094179469729277624_);fill:url(#SVGID_00000094588436901008779030000000273499386953200527_);" width="29.9" height="36.2"/>
				</g>
				<g>
					<defs>
						<path id="SVGID_00000057828625267564699550000016941506400789174704_" d="M398.7,125l0.9,0.2c0.6-2.8,1.6-6,2.6-7.9
							c0.6-1.2,1.2-1.5,2.7-1.9l24.8-6.4v-8.5l-31-13v8.5l21.1,8.4l-17.9,3.4c-2,0.4-3.2,2-3.2,3.7V125 M430.3,100v9.3l-25.2,6.5
							c-1.4,0.4-1.8,0.6-2.4,1.7c-0.9,1.7-1.9,4.7-2.6,7.8l-0.1,0.5l-1.9-0.4v-14.1c0-2.1,1.4-3.8,3.6-4.2l16.1-3l-19.7-7.8v-9.7
							L430.3,100"/>
					</defs>
					<clipPath id="SVGID_00000039837059240613430530000014082139448765694623_">
						<use xlink:href="#SVGID_00000057828625267564699550000016941506400789174704_"  style="overflow:visible;"/>
					</clipPath>
					<g style="clip-path:url(#SVGID_00000039837059240613430530000014082139448765694623_);">
						<g>
							<defs>
								<rect id="SVGID_00000038378784353054337010000003109942209208821159_" x="397.9" y="86.4" width="32.1" height="39.3"/>
							</defs>
							<clipPath id="SVGID_00000101105180151450681860000010946251493159111102_">
								<use xlink:href="#SVGID_00000038378784353054337010000003109942209208821159_"  style="overflow:visible;"/>
							</clipPath>
							<g style="clip-path:url(#SVGID_00000101105180151450681860000010946251493159111102_);">
								<defs>
									<rect id="SVGID_00000176019045300015756790000000671534256519598217_" x="397.9" y="86.4" width="32.1" height="39.3"/>
								</defs>
								<clipPath id="SVGID_00000011008883749452165200000006854003789610431627_">
									<use xlink:href="#SVGID_00000176019045300015756790000000671534256519598217_"  style="overflow:visible;"/>
								</clipPath>
								<g style="clip-path:url(#SVGID_00000011008883749452165200000006854003789610431627_);">
									
										<image style="overflow:visible;" width="135" height="164" xlink:href="75A4A51A58BE1095.jpg"  transform="matrix(0.24 0 0 0.24 397.68 86.4)">
									</image>
								</g>
							</g>
						</g>
					</g>
				</g>
				<g>
					<defs>
						<path id="SVGID_00000123439302318300744810000014118226733540415389_" d="M399.3,124.3c0.6-2.4,1.5-5.4,2.5-7.3
							c0.8-1.4,1.5-1.8,3.1-2.2l24.3-6.3v-7.7l-29.9-12.6v7.3l22.5,8.9l-19.8,3.7c-1.7,0.3-2.7,1.6-2.7,3.2V124.3 M429.7,100.4v8.5
							l-24.8,6.4c-1.5,0.4-2.1,0.7-2.7,1.9c-1,1.9-2,5.1-2.6,7.9l-0.9-0.2v-13.7c0-1.7,1.2-3.3,3.2-3.7l17.9-3.4l-21.1-8.4v-8.5
							L429.7,100.4"/>
					</defs>
					<clipPath id="SVGID_00000019664234389110607150000015583834718960873093_">
						<use xlink:href="#SVGID_00000123439302318300744810000014118226733540415389_"  style="overflow:visible;"/>
					</clipPath>
					<g style="clip-path:url(#SVGID_00000019664234389110607150000015583834718960873093_);">
						<defs>
							<rect id="SVGID_00000062879880067556235380000003956803760921320360_" x="396.2" y="84.9" width="35.1" height="42.7"/>
						</defs>
						<clipPath id="SVGID_00000053532970029218726640000008357852141445525403_">
							<use xlink:href="#SVGID_00000062879880067556235380000003956803760921320360_"  style="overflow:visible;"/>
						</clipPath>
						
							<g transform="matrix(1 0 0 1 -3.051758e-05 0)" style="clip-path:url(#SVGID_00000053532970029218726640000008357852141445525403_);">
							
								<image style="overflow:visible;" width="34" height="28" xlink:href="75A4A51A58BE1097.jpg"  transform="matrix(0 -1.2548 1.2524 0 396.1651 127.5771)">
							</image>
						</g>
					</g>
				</g>
				<g>
					<defs>
						<polyline id="SVGID_00000016797200474830860980000011747867135702975113_" points="429.2,82.9 429.2,89.8 399.3,83.4 
							399.3,76.5 429.2,82.9 						"/>
					</defs>
					<clipPath id="SVGID_00000083771357333267496330000009520000848692505764_">
						<use xlink:href="#SVGID_00000016797200474830860980000011747867135702975113_"  style="overflow:visible;"/>
					</clipPath>
					
						<linearGradient id="SVGID_00000036212206500330828700000000773307499343567497_" gradientUnits="userSpaceOnUse" x1="-72.3091" y1="558.3399" x2="-69.7276" y2="558.3399" gradientTransform="matrix(-12.016 0 0 12.016 -439.1284 -6625.8618)">
						<stop  offset="0" style="stop-color:#808083"/>
						<stop  offset="0.3901" style="stop-color:#CFD1D2"/>
						<stop  offset="0.6374" style="stop-color:#E5E5E5"/>
						<stop  offset="0.7417" style="stop-color:#C1C2C3"/>
						<stop  offset="0.8426" style="stop-color:#A6A8A9"/>
						<stop  offset="0.9318" style="stop-color:#96989A"/>
						<stop  offset="1" style="stop-color:#909294"/>
					</linearGradient>
					
						<rect x="399.3" y="76.5" style="clip-path:url(#SVGID_00000083771357333267496330000009520000848692505764_);fill:url(#SVGID_00000036212206500330828700000000773307499343567497_);" width="29.9" height="13.4"/>
				</g>
				<g>
					<defs>
						<path id="SVGID_00000042694913279765138640000006438153907974554009_" d="M398.7,83.8l31,6.7v-8.1l-31-6.7V83.8 M430.3,82v9.2
							l-32.1-6.9v-9.2L430.3,82"/>
					</defs>
					<clipPath id="SVGID_00000096056412461547150710000010095588813491787928_">
						<use xlink:href="#SVGID_00000042694913279765138640000006438153907974554009_"  style="overflow:visible;"/>
					</clipPath>
					<g style="clip-path:url(#SVGID_00000096056412461547150710000010095588813491787928_);">
						<g>
							<defs>
								<rect id="SVGID_00000127040676280755705830000003517021762540990854_" x="397.9" y="75.1" width="32.1" height="16.1"/>
							</defs>
							<clipPath id="SVGID_00000065781413694840264480000011679299428447839884_">
								<use xlink:href="#SVGID_00000127040676280755705830000003517021762540990854_"  style="overflow:visible;"/>
							</clipPath>
							<g style="clip-path:url(#SVGID_00000065781413694840264480000011679299428447839884_);">
								<defs>
									<rect id="SVGID_00000173143677368502931070000001343564611118360737_" x="397.9" y="75.1" width="32.1" height="16.1"/>
								</defs>
								<clipPath id="SVGID_00000075864815969457906310000009894062564319416727_">
									<use xlink:href="#SVGID_00000173143677368502931070000001343564611118360737_"  style="overflow:visible;"/>
								</clipPath>
								<g style="clip-path:url(#SVGID_00000075864815969457906310000009894062564319416727_);">
									
										<image style="overflow:visible;" width="135" height="68" xlink:href="75A4A51A58BE1092.jpg"  transform="matrix(0.24 0 0 0.24 397.68 74.88)">
									</image>
								</g>
							</g>
						</g>
					</g>
				</g>
				<g>
					<defs>
						<path id="SVGID_00000163040556191799021690000004152311810343152017_" d="M399.3,83.4l29.9,6.4v-6.9l-29.9-6.4V83.4
							 M429.7,82.5v8.1l-31-6.7v-8L429.7,82.5"/>
					</defs>
					<clipPath id="SVGID_00000100350825317170588490000017040910148928976541_">
						<use xlink:href="#SVGID_00000163040556191799021690000004152311810343152017_"  style="overflow:visible;"/>
					</clipPath>
					<g style="clip-path:url(#SVGID_00000100350825317170588490000017040910148928976541_);">
						<defs>
							<rect id="SVGID_00000180344143338439675140000015324249729149506726_" x="396.2" y="73.7" width="35.1" height="19"/>
						</defs>
						<clipPath id="SVGID_00000089559446304876141150000013052238756246379148_">
							<use xlink:href="#SVGID_00000180344143338439675140000015324249729149506726_"  style="overflow:visible;"/>
						</clipPath>
						
							<g transform="matrix(1 0 0 1 -3.051758e-05 0)" style="clip-path:url(#SVGID_00000089559446304876141150000013052238756246379148_);">
							
								<image style="overflow:visible;" width="15" height="28" xlink:href="75A4A51A58BE1093.jpg"  transform="matrix(0 -1.2687 1.2524 0 396.1651 92.7489)">
							</image>
						</g>
					</g>
				</g>
				<g>
					<defs>
						<path id="SVGID_00000013908028854409191730000017114065436682331566_" d="M429.7,68c0,3.4-0.7,6.6-1.4,8.3l-5.7-1.2
							c0.8-1.8,1.7-4,1.7-7.6l0-0.3c0-2.6-1.2-5.3-3.6-5.4c-1.8,0-2.9,1.6-4.4,4.5c-1.4,2.9-3.8,6.8-8,6.7c-5.7,0-9.7-5.4-9.7-13.1
							c0-3,0.6-5.3,1.2-6.9l5.5,1.2c-1,2.5-1.3,4.7-1.3,6.2c0,0.7,0,1.2,0.1,1.5c0.4,2.8,1.9,3.9,3.1,3.9c1.8,0,2.8-2,4.1-4.3
							c1.7-3.3,3.7-7,8.3-7C425.7,54.5,429.7,59.8,429.7,68"/>
					</defs>
					<clipPath id="SVGID_00000003073823490541534700000017884894678692427676_">
						<use xlink:href="#SVGID_00000013908028854409191730000017114065436682331566_"  style="overflow:visible;"/>
					</clipPath>
					
						<linearGradient id="SVGID_00000003802065241947223240000017822373966788523424_" gradientUnits="userSpaceOnUse" x1="-72.1924" y1="557.0571" x2="-69.6101" y2="557.0571" gradientTransform="matrix(-12.422 0 0 12.422 -466.5462 -6855.0674)">
						<stop  offset="0" style="stop-color:#808083"/>
						<stop  offset="0.3901" style="stop-color:#CFD1D2"/>
						<stop  offset="0.6374" style="stop-color:#E5E5E5"/>
						<stop  offset="0.7417" style="stop-color:#C1C2C3"/>
						<stop  offset="0.8426" style="stop-color:#A6A8A9"/>
						<stop  offset="0.9318" style="stop-color:#96989A"/>
						<stop  offset="1" style="stop-color:#909294"/>
					</linearGradient>
					
						<rect x="398.7" y="53.1" style="clip-path:url(#SVGID_00000003073823490541534700000017884894678692427676_);fill:url(#SVGID_00000003802065241947223240000017822373966788523424_);" width="31" height="23.2"/>
				</g>
				<g>
					<defs>
						<path id="SVGID_00000021103325346789112160000008268573386357560489_" d="M421.8,75.5l6.8,1.5c0.9-1.9,1.6-5.4,1.7-9
							c0-8.5-4.2-14-10.6-14c-8.2,0-8.6,11.4-12.3,11.3c-1.1,0-2.3-1.1-2.6-3.4c0-0.3-0.1-0.8-0.1-1.4c0-1.6,0.3-3.9,1.5-6.6
							l-6.6-1.4c-0.7,1.9-1.4,4.4-1.4,7.5c0,8,4.2,13.6,10.3,13.6c4.5,0,7-4,8.4-7.1c1.5-3.1,2.5-4.2,3.9-4.2c2.1,0,3,2.5,3,4.8
							c0,0.1,0,0.2,0,0.3C423.7,71.4,422.6,73.6,421.8,75.5 M430.8,68L430.8,68c0,3.4-0.7,7-1.7,9.2l-0.2,0.4l-7.9-1.7l0.4-0.8
							c0.8-1.8,1.8-3.9,1.8-7.5l0-0.3c0-1.6-0.6-4.3-2.5-4.3c-1,0-1.8,0.6-3.4,3.9c-1.6,3.2-4.2,7.4-8.9,7.4
							c-6.3-0.1-10.8-5.9-10.8-14.2c0-3.4,0.8-6.1,1.4-7.7l0.2-0.4l7.7,1.6l-0.3,0.6c-1.2,2.6-1.4,4.9-1.4,6.3c0,0.6,0,1,0.1,1.3
							c0.3,2,1.2,2.9,2.1,2.9c1.1,0,2-1.7,3.1-3.7c1.7-3.2,4-7.6,9.2-7.6C426.4,53.4,430.8,59.2,430.8,68"/>
					</defs>
					<clipPath id="SVGID_00000130611008645396112110000004213323368724959372_">
						<use xlink:href="#SVGID_00000021103325346789112160000008268573386357560489_"  style="overflow:visible;"/>
					</clipPath>
					<g style="clip-path:url(#SVGID_00000130611008645396112110000004213323368724959372_);">
						<g>
							<defs>
								<rect id="SVGID_00000074413848027381929620000002653033438471119005_" x="397.4" y="51.8" width="33.1" height="25.7"/>
							</defs>
							<clipPath id="SVGID_00000092456861912295262290000011367185516074811320_">
								<use xlink:href="#SVGID_00000074413848027381929620000002653033438471119005_"  style="overflow:visible;"/>
							</clipPath>
							<g style="clip-path:url(#SVGID_00000092456861912295262290000011367185516074811320_);">
								<defs>
									<rect id="SVGID_00000052805998859670760200000011656931823681311152_" x="397.4" y="51.8" width="33.1" height="25.7"/>
								</defs>
								<clipPath id="SVGID_00000000182887103946529600000012846186247663003266_">
									<use xlink:href="#SVGID_00000052805998859670760200000011656931823681311152_"  style="overflow:visible;"/>
								</clipPath>
								<g style="clip-path:url(#SVGID_00000000182887103946529600000012846186247663003266_);">
									
										<image style="overflow:visible;" width="139" height="108" xlink:href="75A4A51A58BE109D.jpg"  transform="matrix(0.24 0 0 0.24 397.2 51.6)">
									</image>
								</g>
							</g>
						</g>
					</g>
				</g>
				<g>
					<defs>
						<path id="SVGID_00000098202067895666970270000009527971993422640512_" d="M422.6,75.1l5.7,1.2c0.7-1.8,1.4-4.9,1.4-8.3
							c0-8.2-4-13.4-10.1-13.5c-4.6,0-6.5,3.7-8.3,7c-1.2,2.3-2.3,4.3-4.1,4.3c-1.2,0-2.8-1.1-3.1-3.9c0-0.3-0.1-0.8-0.1-1.5
							c0-1.5,0.2-3.7,1.3-6.2l-5.5-1.2c-0.5,1.6-1.2,3.9-1.2,6.9c0,7.6,4,13,9.7,13.1c4.2,0,6.5-3.8,8-6.7c1.4-2.9,2.5-4.5,4.4-4.5
							c2.4,0,3.5,2.7,3.6,5.4l0,0.3C424.3,71.1,423.4,73.3,422.6,75.1 M430.2,68c0,3.6-0.8,7.1-1.7,9l-6.8-1.5c0.8-1.8,2-4.1,2-8
							c0-0.1,0-0.2,0-0.3c0-2.3-1-4.8-3-4.8c-1.4,0-2.3,1-3.9,4.2c-1.5,3.1-4,7.1-8.4,7.1c-6-0.1-10.3-5.7-10.3-13.6
							c0-3.1,0.7-5.6,1.4-7.5l6.6,1.4c-1.2,2.6-1.5,5-1.5,6.6c0,0.6,0,1.1,0.1,1.4c0.3,2.3,1.5,3.4,2.6,3.4
							c3.7,0.1,4.1-11.3,12.3-11.3C426.1,54,430.2,59.5,430.2,68"/>
					</defs>
					<clipPath id="SVGID_00000158030439495428981130000018360712127502832789_">
						<use xlink:href="#SVGID_00000098202067895666970270000009527971993422640512_"  style="overflow:visible;"/>
					</clipPath>
					<g style="clip-path:url(#SVGID_00000158030439495428981130000018360712127502832789_);">
						<defs>
							<rect id="SVGID_00000173868340554498404270000016489151131363307925_" x="396.2" y="50.1" width="36.3" height="28.7"/>
						</defs>
						<clipPath id="SVGID_00000045617210423626091930000013427771519635283879_">
							<use xlink:href="#SVGID_00000173868340554498404270000016489151131363307925_"  style="overflow:visible;"/>
						</clipPath>
						<g transform="matrix(1 0 0 1 0 0)" style="clip-path:url(#SVGID_00000045617210423626091930000013427771519635283879_);">
							
								<image style="overflow:visible;" width="23" height="29" xlink:href="75A4A51A58BE109F.jpg"  transform="matrix(0 -1.2465 1.2519 0 396.1651 78.7564)">
							</image>
						</g>
					</g>
				</g>
				<g>
					<defs>
						<path id="SVGID_00000077292712235593831720000016567007130406712207_" d="M419.3,34.6l-14.2,2.9l14.2,5.2V34.6 M429.2,26.1
							v6.4l-4.6,1v11.1l4.6,1.7v7.3l-28-11.8c-1.2-0.5-1.9-1.6-1.9-2.9v-6.4L429.2,26.1"/>
					</defs>
					<clipPath id="SVGID_00000034070000325349602500000018306675577370544787_">
						<use xlink:href="#SVGID_00000077292712235593831720000016567007130406712207_"  style="overflow:visible;"/>
					</clipPath>
					
						<linearGradient id="SVGID_00000138539247501058057960000014290659119577113496_" gradientUnits="userSpaceOnUse" x1="-72.3091" y1="556.1244" x2="-69.7276" y2="556.1244" gradientTransform="matrix(-12.016 0 0 12.016 -439.1284 -6642.5493)">
						<stop  offset="0" style="stop-color:#808083"/>
						<stop  offset="0.3901" style="stop-color:#CFD1D2"/>
						<stop  offset="0.6374" style="stop-color:#E5E5E5"/>
						<stop  offset="0.7417" style="stop-color:#C1C2C3"/>
						<stop  offset="0.8426" style="stop-color:#A6A8A9"/>
						<stop  offset="0.9318" style="stop-color:#96989A"/>
						<stop  offset="1" style="stop-color:#909294"/>
					</linearGradient>
					
						<rect x="399.3" y="26.1" style="clip-path:url(#SVGID_00000034070000325349602500000018306675577370544787_);fill:url(#SVGID_00000138539247501058057960000014290659119577113496_);" width="29.9" height="27.4"/>
				</g>
				<g>
					<defs>
						<path id="SVGID_00000041255386694350677790000008805226237577946542_" d="M409.1,37.8l9.1,3.4v-5.2L409.1,37.8 M418.7,35.2
							v6.7l-11.6-4.3L418.7,35.2 M425.1,44.2V33.9l4.6-1v-7.5l-31,6.5v6.9c0,1.5,0.9,2.8,2.3,3.4l28.7,12.1v-8.5L425.1,44.2
							 M430.3,24.8v8.6l-4.6,1v9.5l4.6,1.7v9.7l-29.5-12.4c-1.6-0.7-2.6-2.2-2.6-3.9v-7.3L430.3,24.8"/>
					</defs>
					<clipPath id="SVGID_00000048483940777296972630000004476948219447424673_">
						<use xlink:href="#SVGID_00000041255386694350677790000008805226237577946542_"  style="overflow:visible;"/>
					</clipPath>
					<g style="clip-path:url(#SVGID_00000048483940777296972630000004476948219447424673_);">
						<g>
							<defs>
								<rect id="SVGID_00000070801199966942552240000007239682048015639995_" x="397.9" y="24.8" width="32.1" height="30.4"/>
							</defs>
							<clipPath id="SVGID_00000003063790053294238060000018303872340008945806_">
								<use xlink:href="#SVGID_00000070801199966942552240000007239682048015639995_"  style="overflow:visible;"/>
							</clipPath>
							<g style="clip-path:url(#SVGID_00000003063790053294238060000018303872340008945806_);">
								<defs>
									<rect id="SVGID_00000092453790040916404890000007754657060811621561_" x="397.9" y="24.8" width="32.1" height="30.4"/>
								</defs>
								<clipPath id="SVGID_00000132806577278685986990000011565699037290281344_">
									<use xlink:href="#SVGID_00000092453790040916404890000007754657060811621561_"  style="overflow:visible;"/>
								</clipPath>
								<g style="clip-path:url(#SVGID_00000132806577278685986990000011565699037290281344_);">
									
										<image style="overflow:visible;" width="135" height="127" xlink:href="75A4A51A58BE1090.jpg"  transform="matrix(0.24 0 0 0.24 397.68 24.72)">
									</image>
								</g>
							</g>
						</g>
					</g>
				</g>
				<g>
					<defs>
						<path id="SVGID_00000099637910953218827330000009258760570075275700_" d="M407.1,37.6l11.6,4.3v-6.7L407.1,37.6 M419.3,34.6
							v8.1l-14.2-5.2L419.3,34.6 M424.6,44.6V33.5l4.6-1v-6.4l-29.9,6.3v6.4c0,1.3,0.7,2.4,1.9,2.9l28,11.8v-7.3L424.6,44.6
							 M429.7,25.5v7.5l-4.6,1v10.3l4.6,1.7v8.5L401,42.3c-1.4-0.6-2.3-1.9-2.3-3.4V32L429.7,25.5"/>
					</defs>
					<clipPath id="SVGID_00000023262198882727048870000012470115327725810062_">
						<use xlink:href="#SVGID_00000099637910953218827330000009258760570075275700_"  style="overflow:visible;"/>
					</clipPath>
					<g style="clip-path:url(#SVGID_00000023262198882727048870000012470115327725810062_);">
						<defs>
							<rect id="SVGID_00000118358903044210494950000014223754184502589339_" x="396.2" y="24" width="35.1" height="32.4"/>
						</defs>
						<clipPath id="SVGID_00000000915038618317129090000015332048743460234118_">
							<use xlink:href="#SVGID_00000118358903044210494950000014223754184502589339_"  style="overflow:visible;"/>
						</clipPath>
						
							<g transform="matrix(1 0 0 1 -3.051758e-05 3.814697e-06)" style="clip-path:url(#SVGID_00000000915038618317129090000015332048743460234118_);">
							
								<image style="overflow:visible;" width="26" height="28" xlink:href="75A4A51A58BE1091.jpg"  transform="matrix(0 -1.2462 1.2524 0 396.1651 56.3717)">
							</image>
						</g>
					</g>
				</g>
			</g>
		</g>
	</g>
	<g>
		<path class="st23" d="M437.9,172c-0.1-0.7-0.2-1.5-0.2-2.6c0-1.3,0.3-2.3,0.9-2.9c0.5-0.6,1.3-0.9,2.2-0.9c0.9,0,1.7,0.3,2.2,0.8
			c0.8,0.7,1.2,1.9,1.2,3.2c0,0.4,0,0.8-0.1,1.1h4.2v1.4H437.9z M442.9,170.6c0.1-0.3,0.1-0.7,0.1-1.1c0-1.6-0.8-2.6-2.2-2.6
			c-1.4,0-2.1,1-2.1,2.5c0,0.6,0,1,0.1,1.3H442.9z"/>
		<path class="st23" d="M437.2,163.2v-1.4h11.1v1.4H437.2z"/>
		<path class="st23" d="M448.3,154.7l-1,0.1v0c0.6,0.4,1.1,1.2,1.1,2.3c0,1.5-1.1,2.3-2.2,2.3c-1.8,0-2.8-1.6-2.8-4.5h-0.2
			c-0.6,0-1.7,0.2-1.7,1.7c0,0.7,0.2,1.4,0.6,2l-0.9,0.3c-0.4-0.6-0.7-1.5-0.7-2.5c0-2.3,1.6-2.9,3.1-2.9h2.8c0.7,0,1.3,0,1.8-0.1
			V154.7z M444.4,154.9c0,1.5,0.2,3.2,1.7,3.2c0.9,0,1.3-0.6,1.3-1.3c0-1-0.6-1.6-1.3-1.8c-0.1,0-0.3-0.1-0.4-0.1H444.4z"/>
		<path class="st23" d="M438.6,149.2h2.2v-2h1v2h4.1c0.9,0,1.5-0.3,1.5-1c0-0.4,0-0.6-0.1-0.8l1-0.1c0.1,0.3,0.2,0.7,0.2,1.2
			c0,0.6-0.2,1.2-0.6,1.5c-0.4,0.4-1.1,0.5-2,0.5h-4.1v1.2h-1v-1.2h-1.8L438.6,149.2z"/>
		<path class="st23" d="M438.6,143.5c0.5,0,0.8,0.3,0.8,0.9c0,0.5-0.4,0.8-0.8,0.8c-0.5,0-0.9-0.4-0.9-0.9
			C437.7,143.9,438.1,143.5,438.6,143.5z M448.3,145.1h-7.5v-1.4h7.5V145.1z"/>
		<path class="st23" d="M442.8,140.8c-0.8,0-1.4,0-2,0.1v-1.2l1.2-0.1v0c-0.7-0.4-1.4-1.2-1.4-2.5c0-1,0.6-2.7,3.2-2.7h4.5v1.4h-4.3
			c-1.2,0-2.2,0.5-2.2,1.7c0,0.9,0.6,1.6,1.4,1.8c0.2,0.1,0.4,0.1,0.6,0.1h4.5v1.4H442.8z"/>
		<path class="st23" d="M446.2,125.2c0.8,0,1.5,0,2.1-0.1v1.2l-1.2,0.1v0c0.6,0.4,1.4,1.2,1.4,2.5c0,1.2-0.7,2.6-3.3,2.6h-4.4v-1.4
			h4.2c1.4,0,2.4-0.4,2.4-1.7c0-0.9-0.6-1.6-1.2-1.8c-0.2-0.1-0.5-0.1-0.7-0.1h-4.6v-1.4H446.2z"/>
		<path class="st23" d="M442.8,122.3c-0.8,0-1.4,0-2,0.1v-1.2l1.2-0.1v0c-0.7-0.4-1.4-1.1-1.4-2.4c0-1,0.6-1.8,1.5-2.1v0
			c-0.4-0.2-0.7-0.5-1-0.8c-0.3-0.5-0.5-1-0.5-1.7c0-1,0.7-2.5,3.3-2.5h4.4v1.3H444c-1.4,0-2.3,0.5-2.3,1.6c0,0.8,0.6,1.4,1.2,1.6
			c0.2,0.1,0.4,0.1,0.7,0.1h4.7v1.3h-4.5c-1.2,0-2.1,0.5-2.1,1.6c0,0.9,0.7,1.5,1.4,1.7c0.2,0.1,0.4,0.1,0.7,0.1h4.6v1.3H442.8z"/>
		<path class="st23" d="M444.7,104c1.9,0,2.6-1.2,2.6-2.6c0-1-0.2-1.6-0.4-2.1l1-0.2c0.2,0.5,0.5,1.3,0.5,2.5c0,2.3-1.5,3.7-3.8,3.7
			s-4.1-1.3-4.1-3.5c0-2.5,2.2-3.1,3.6-3.1c0.3,0,0.5,0,0.6,0V104z M443.8,100c-0.9,0-2.2,0.4-2.2,1.9c0,1.4,1.3,2,2.2,2.1V100z"/>
		<path class="st23" d="M442.8,96.4c-0.8,0-1.4,0-2,0.1v-1.2l1.2-0.1v0c-0.7-0.4-1.4-1.1-1.4-2.4c0-1,0.6-1.8,1.5-2.1v0
			c-0.4-0.2-0.7-0.5-1-0.8c-0.3-0.5-0.5-1-0.5-1.7c0-1,0.7-2.5,3.3-2.5h4.4v1.3H444c-1.4,0-2.3,0.5-2.3,1.6c0,0.8,0.6,1.4,1.2,1.6
			c0.2,0.1,0.4,0.1,0.7,0.1h4.7v1.3h-4.5c-1.2,0-2.1,0.5-2.1,1.6c0,0.9,0.7,1.5,1.4,1.7c0.2,0.1,0.4,0.1,0.7,0.1h4.6v1.3H442.8z"/>
		<path class="st23" d="M443.2,82.7c-1,0-1.7,0-2.5,0.1v-1.2l1.3-0.1v0c-0.9-0.6-1.5-1.4-1.5-2.7c0-1.8,1.5-3.2,3.8-3.2
			c2.7,0,4.1,1.7,4.1,3.4c0,1-0.4,1.9-1.2,2.3v0h4.1v1.4H443.2z M445.2,81.4c0.2,0,0.4,0,0.6-0.1c1-0.2,1.6-1.1,1.6-2.1
			c0-1.5-1.2-2.3-2.9-2.3c-1.5,0-2.8,0.8-2.8,2.2c0,0.9,0.7,1.8,1.7,2.1c0.2,0,0.4,0.1,0.6,0.1H445.2z"/>
		<path class="st23" d="M443.1,73.3c-0.9,0-1.7,0-2.4,0.1v-1.2l1.5,0V72c-1-0.3-1.7-1.2-1.7-2.1c0-0.2,0-0.3,0-0.4h1.3
			c0,0.1,0,0.3,0,0.5c0,1,0.7,1.7,1.8,1.8c0.2,0,0.4,0.1,0.6,0.1h4v1.4H443.1z"/>
		<path class="st23" d="M444.7,66.9c1.9,0,2.6-1.2,2.6-2.6c0-1-0.2-1.6-0.4-2.1l1-0.2c0.2,0.5,0.5,1.3,0.5,2.5
			c0,2.3-1.5,3.7-3.8,3.7s-4.1-1.3-4.1-3.5c0-2.5,2.2-3.1,3.6-3.1c0.3,0,0.5,0,0.6,0V66.9z M443.8,62.9c-0.9,0-2.2,0.4-2.2,1.9
			c0,1.4,1.3,2,2.2,2.1V62.9z"/>
		<path class="st23" d="M446.9,59.5c0.3-0.4,0.5-1.1,0.5-1.8c0-1-0.5-1.5-1.1-1.5c-0.7,0-1,0.4-1.4,1.4c-0.5,1.4-1.2,2-2.1,2
			c-1.2,0-2.2-1-2.2-2.6c0-0.8,0.2-1.4,0.5-1.9l1,0.3c-0.2,0.3-0.4,0.8-0.4,1.5c0,0.8,0.5,1.3,1,1.3c0.6,0,0.9-0.5,1.3-1.4
			c0.5-1.3,1.2-2,2.3-2c1.3,0,2.3,1,2.3,2.8c0,0.8-0.2,1.6-0.5,2.1L446.9,59.5z"/>
		<path class="st23" d="M448.3,48.3l-1,0.1v0c0.6,0.4,1.1,1.2,1.1,2.3c0,1.5-1.1,2.3-2.2,2.3c-1.8,0-2.8-1.6-2.8-4.5h-0.2
			c-0.6,0-1.7,0.2-1.7,1.7c0,0.7,0.2,1.4,0.6,2l-0.9,0.3c-0.4-0.6-0.7-1.5-0.7-2.5c0-2.3,1.6-2.9,3.1-2.9h2.8c0.7,0,1.3,0,1.8-0.1
			V48.3z M444.4,48.5c0,1.5,0.2,3.2,1.7,3.2c0.9,0,1.3-0.6,1.3-1.3c0-1-0.6-1.6-1.3-1.8c-0.1,0-0.3-0.1-0.4-0.1H444.4z"/>
		<path class="st23" d="M443.1,44.3c-0.9,0-1.7,0-2.4,0.1v-1.2l1.5,0v-0.1c-1-0.3-1.7-1.2-1.7-2.1c0-0.2,0-0.3,0-0.4h1.3
			c0,0.1,0,0.3,0,0.5c0,1,0.7,1.7,1.8,1.8c0.2,0,0.4,0.1,0.6,0.1h4v1.4H443.1z"/>
		<path class="st23" d="M438.6,37c0.5,0,0.8,0.3,0.8,0.9c0,0.5-0.4,0.8-0.8,0.8c-0.5,0-0.9-0.4-0.9-0.9
			C437.7,37.4,438.1,37,438.6,37z M448.3,38.6h-7.5v-1.4h7.5V38.6z"/>
		<path class="st23" d="M448.3,30.1l-1,0.1v0c0.6,0.4,1.1,1.2,1.1,2.3c0,1.5-1.1,2.3-2.2,2.3c-1.8,0-2.8-1.6-2.8-4.5h-0.2
			c-0.6,0-1.7,0.2-1.7,1.7c0,0.7,0.2,1.4,0.6,2l-0.9,0.3c-0.4-0.6-0.7-1.5-0.7-2.5c0-2.3,1.6-2.9,3.1-2.9h2.8c0.7,0,1.3,0,1.8-0.1
			V30.1z M444.4,30.3c0,1.5,0.2,3.2,1.7,3.2c0.9,0,1.3-0.6,1.3-1.3c0-1-0.6-1.6-1.3-1.8c-0.1,0-0.3-0.1-0.4-0.1H444.4z"/>
		<path class="st23" d="M437.2,26.2v-1.4h11.1v1.4H437.2z"/>
	</g>
</g>
</svg>
