<?xml version="1.0" encoding="utf-8"?>
<!-- Generator: Adobe Illustrator 28.0.0, SVG Export Plug-In . SVG Version: 6.00 Build 0)  -->
<svg version="1.1" id="Layer_1" xmlns="http://www.w3.org/2000/svg" xmlns:xlink="http://www.w3.org/1999/xlink" x="0px" y="0px"
	 viewBox="0 0 250.4 158" style="enable-background:new 0 0 250.4 158;" xml:space="preserve">
<style type="text/css">
	.st0{fill:#2F2F2F;}
	.st1{fill:#BBBCBF;}
	.st2{fill:none;}
	.st3{fill:#8E9C9C;}
	.st4{font-family:'NewHero-Bold';}
	.st5{font-size:3px;}
	.st6{enable-background:new    ;}
	.st7{font-family:'NewHero-Medium';}
	.st8{font-size:3.3451px;}
</style>
<g>
	<rect x="0" class="st0" width="250.4" height="158"/>
	<g>
		<rect x="0" y="12.8" class="st1" width="250.4" height="36"/>
	</g>
	<rect x="202.9" y="63.2" class="st2" width="3.2" height="22.8"/>
	<text transform="matrix(0 -1 1 0 205.3457 85.9712)" class="st3 st4 st5">Atendimento</text>
	<g>
		<text transform="matrix(0 -1 1 0 238.1609 85.9707)" class="st3 st4 st5">4000 1234</text>
		<text transform="matrix(0 -1 1 0 229.3445 85.9707)" class="st6"><tspan x="0" y="0" class="st3 st7 st5">Capitais e regiões </tspan><tspan x="0" y="3.6" class="st3 st7 st5">metropolitanas:</tspan></text>
		<text transform="matrix(0 -1 1 0 221.1329 85.9707)" class="st3 st4 st5">0800 941 2343</text>
		<text transform="matrix(0 -1 1 0 212.3174 85.9707)" class="st6"><tspan x="0" y="0" class="st3 st7 st5">Ligações originadas</tspan><tspan x="0" y="3.6" class="st3 st7 st5">de telefone fixo:</tspan></text>
	</g>
	<g>
		<g>
			<rect x="21.4" y="122.1" class="st3" width="10" height="2.1"/>
			<path class="st3" d="M19.1,123.8c0.2,0.2,0.4,0.4,0.7,0.4c0.5,0,0.9-0.5,0.6-1.1l-1.2-3.2H16L19.1,123.8z"/>
			<path class="st3" d="M21.2,140.1c0,2.8,2.1,5,5.1,5s5.3-2.2,5.3-5.2c0-1.9-0.9-3.4-2.2-4.3l-1.2,1.5c0.9,0.7,1.4,1.7,1.4,2.9
				c0,1.6-0.9,2.7-2.4,3v-6.7c0-0.6-0.3-1-1-1C23.9,135.3,21.2,136.9,21.2,140.1z M25.4,143c-1.4-0.3-2.2-1.4-2.2-2.9
				c0-1.5,0.8-2.5,2.2-2.7V143z"/>
			<path class="st3" d="M27.6,131.5v-5.2h-1.9v5.2c-1.6,0-2.5-1-2.5-2.5c0-0.8,0.3-1.5,0.6-2l-1.5-1.3c-0.7,1-1.1,2-1.1,3.3
				c0,2.7,1.8,4.6,4.5,4.6h5.8v-2.1H27.6z"/>
		</g>
		<g>
			<g>
				<rect x="40.6" y="115.6" class="st2" width="8.4" height="29.5"/>
				<text transform="matrix(0 -1 1 0 43.3053 145.1538)" class="st3 st4 st8">sejaefi.com.br</text>
			</g>
			<g id="Group_25947_00000009566513378469011030000013671192547488654260_" transform="translate(0 2)">
				<text transform="matrix(0 -1 1 0 48.8287 143.3989)" class="st3 st7 st8">@sejaefi</text>
			</g>
		</g>
	</g>
	<g>
		<g>
			<path class="st3" d="M237.9,144.9c0.1-0.1,0.2-0.3,0.2-0.5c0-0.3-0.2-0.5-0.4-0.5c-0.2,0-0.4,0.1-0.5,0.4
				c-0.1,0.4-0.3,0.6-0.7,0.6c-0.4,0-0.6-0.3-0.6-0.8c0-0.2,0.1-0.4,0.1-0.5l0.3,0.1c0,0.1-0.1,0.2-0.1,0.4c0,0.3,0.2,0.4,0.4,0.4
				c0.2,0,0.3-0.1,0.5-0.5c0.2-0.4,0.4-0.6,0.7-0.6c0.4,0,0.7,0.3,0.7,0.8c0,0.2-0.1,0.5-0.2,0.6L237.9,144.9"/>
			<polyline class="st3" points="237.2,141.8 237.2,142.8 238,142.8 238,141.7 238.3,141.7 238.3,143.1 235.9,143.1 235.9,141.8 
				236.1,141.8 236.1,142.8 236.9,142.8 236.9,141.8 237.2,141.8 			"/>
			<path class="st3" d="M238.2,139.7c0.1,0.1,0.1,0.3,0.1,0.6c0,0.7-0.4,1.2-1.2,1.2c-0.8,0-1.3-0.5-1.3-1.2c0-0.3,0.1-0.5,0.1-0.6
				l0.3,0.1c-0.1,0.1-0.1,0.3-0.1,0.5c0,0.6,0.4,0.9,1,0.9c0.6,0,1-0.3,1-0.9c0-0.2,0-0.4-0.1-0.5L238.2,139.7"/>
			<path class="st3" d="M235.9,139h1.4c0.5,0,0.8-0.2,0.8-0.6c0-0.4-0.2-0.6-0.8-0.6h-1.4v-0.3h1.4c0.7,0,1,0.4,1,0.9
				c0,0.5-0.3,0.9-1,0.9h-1.4V139"/>
			<path class="st3" d="M235.9,137c0-0.2,0-0.4,0-0.6c0-0.3,0.1-0.5,0.2-0.7c0.1-0.1,0.3-0.2,0.5-0.2c0.3,0,0.5,0.2,0.6,0.4h0
				c0.1-0.2,0.2-0.3,0.5-0.3c0.3-0.1,0.6-0.1,0.7-0.2v0.3c-0.1,0-0.3,0.1-0.6,0.2c-0.3,0.1-0.5,0.2-0.5,0.5v0.3h1v0.3H235.9
				 M237,136.7v-0.3c0-0.3-0.2-0.5-0.5-0.5c-0.3,0-0.4,0.2-0.4,0.5c0,0.1,0,0.3,0,0.3H237z"/>
			<rect x="235.9" y="134.8" class="st3" width="2.4" height="0.3"/>
			<polyline class="st3" points="236.1,133.8 236.1,134.5 235.9,134.5 235.9,132.8 236.1,132.8 236.1,133.5 238.3,133.5 
				238.3,133.8 236.1,133.8 			"/>
			<path class="st3" d="M238.3,132h-1l-1.4,0.8v-0.4l0.7-0.3c0.2-0.1,0.3-0.2,0.5-0.2v0c-0.2-0.1-0.3-0.1-0.5-0.2l-0.7-0.3v-0.3
				l1.4,0.8h1V132"/>
			<path class="st3" d="M238.2,127.6c0.1,0.1,0.1,0.3,0.1,0.6c0,0.7-0.4,1.2-1.2,1.2c-0.8,0-1.3-0.5-1.3-1.2c0-0.3,0.1-0.5,0.1-0.6
				l0.3,0.1c-0.1,0.1-0.1,0.3-0.1,0.5c0,0.6,0.4,0.9,1,0.9c0.6,0,1-0.3,1-0.9c0-0.2,0-0.4-0.1-0.5L238.2,127.6"/>
			<path class="st3" d="M237.1,125.2c0.8,0,1.3,0.5,1.3,1.1c0,0.6-0.5,1.1-1.2,1.1c-0.8,0-1.3-0.5-1.3-1.1
				C235.8,125.6,236.3,125.2,237.1,125.2 M237.1,127c0.5,0,1-0.3,1-0.8c0-0.5-0.5-0.8-1-0.8c-0.5,0-1,0.2-1,0.8
				C236.1,126.8,236.6,127,237.1,127"/>
			<path class="st3" d="M235.9,124.8c0-0.2-0.1-0.4-0.1-0.7c0-0.4,0.1-0.8,0.3-1c0.2-0.2,0.5-0.3,0.9-0.3c0.4,0,0.7,0.1,0.9,0.3
				c0.2,0.2,0.3,0.6,0.3,1.1c0,0.2,0,0.4,0,0.6H235.9 M238,124.5c0-0.1,0-0.2,0-0.3c0-0.7-0.4-1-1-1c-0.6,0-0.9,0.3-0.9,1
				c0,0.2,0,0.3,0,0.4H238z"/>
			<polyline class="st3" points="237.2,121.2 237.2,122.1 238,122.1 238,121.1 238.3,121.1 238.3,122.4 235.9,122.4 235.9,121.1 
				236.2,121.1 236.2,122.1 236.9,122.1 236.9,121.2 237.2,121.2 			"/>
		</g>
		<g>
			<path class="st3" d="M227.7,113.4c0-0.4,0-0.6,0.2-0.8c0.2-0.2,0.6-0.4,1.9-0.4c1.3,0,1.7,0.2,1.9,0.4c0.2,0.2,0.2,0.4,0.2,0.8
				v0.9c0,0.4,0,0.6-0.2,0.8c-0.2,0.2-0.6,0.4-1.9,0.4c-1.3,0-1.7-0.1-1.9-0.4c-0.2-0.2-0.2-0.3-0.2-0.8V113.4 M228.1,114.3
				c0,0.3,0,0.4,0.1,0.4c0.1,0.1,0.3,0.2,1.6,0.2c1.2,0,1.5-0.1,1.6-0.2c0.1-0.1,0.1-0.2,0.1-0.4v-0.9c0-0.3,0-0.4-0.1-0.4
				c-0.1-0.1-0.3-0.2-1.6-0.2c-1.2,0-1.5,0.1-1.6,0.2c-0.1,0.1-0.1,0.2-0.1,0.4V114.3z"/>
			<path class="st3" d="M227.7,109.4c0-0.4,0-0.6,0.2-0.8c0.2-0.2,0.6-0.4,1.9-0.4c1.3,0,1.7,0.2,1.9,0.4c0.2,0.2,0.2,0.4,0.2,0.8
				v0.9c0,0.4,0,0.6-0.2,0.8c-0.2,0.2-0.6,0.4-1.9,0.4c-1.3,0-1.7-0.1-1.9-0.4c-0.2-0.2-0.2-0.3-0.2-0.8V109.4 M228.1,110.3
				c0,0.3,0,0.4,0.1,0.4c0.1,0.1,0.3,0.2,1.6,0.2c1.2,0,1.5-0.1,1.6-0.2c0.1-0.1,0.1-0.2,0.1-0.4v-0.9c0-0.3,0-0.4-0.1-0.4
				c-0.1-0.1-0.3-0.2-1.6-0.2c-1.2,0-1.5,0.1-1.6,0.2c-0.1,0.1-0.1,0.2-0.1,0.4V110.3z"/>
			<path class="st3" d="M227.7,102.6c0-0.4,0-0.6,0.2-0.8c0.2-0.2,0.6-0.4,1.9-0.4c1.3,0,1.7,0.2,1.9,0.4c0.2,0.2,0.2,0.4,0.2,0.8
				v0.9c0,0.4,0,0.6-0.2,0.8c-0.2,0.2-0.6,0.4-1.9,0.4c-1.3,0-1.7-0.1-1.9-0.4c-0.2-0.2-0.2-0.3-0.2-0.8V102.6 M228.1,103.5
				c0,0.3,0,0.4,0.1,0.4c0.1,0.1,0.3,0.2,1.6,0.2c1.2,0,1.5-0.1,1.6-0.2c0.1-0.1,0.1-0.2,0.1-0.4v-0.9c0-0.3,0-0.4-0.1-0.4
				c-0.1-0.1-0.3-0.2-1.6-0.2c-1.2,0-1.5,0.1-1.6,0.2c-0.1,0.1-0.1,0.2-0.1,0.4V103.5z"/>
			<path class="st3" d="M234.1,102.6c0-0.4,0-0.6,0.2-0.8c0.2-0.2,0.6-0.4,1.9-0.4c1.3,0,1.7,0.2,1.9,0.4c0.2,0.2,0.2,0.4,0.2,0.8
				v0.9c0,0.4,0,0.6-0.2,0.8c-0.2,0.2-0.6,0.4-1.9,0.4c-1.3,0-1.7-0.1-1.9-0.4c-0.2-0.2-0.2-0.3-0.2-0.8V102.6 M234.5,103.5
				c0,0.3,0,0.4,0.1,0.4c0.1,0.1,0.3,0.2,1.6,0.2c1.2,0,1.5-0.1,1.6-0.2c0.1-0.1,0.1-0.2,0.1-0.4v-0.9c0-0.3,0-0.4-0.1-0.4
				c-0.1-0.1-0.3-0.2-1.6-0.2c-1.2,0-1.5,0.1-1.6,0.2c-0.1,0.1-0.1,0.2-0.1,0.4V103.5z"/>
			<path class="st3" d="M234.1,106.7c0-0.4,0-0.6,0.2-0.8c0.2-0.2,0.6-0.4,1.9-0.4c1.3,0,1.7,0.2,1.9,0.4c0.2,0.2,0.2,0.4,0.2,0.8
				v0.9c0,0.4,0,0.6-0.2,0.8c-0.2,0.2-0.6,0.4-1.9,0.4c-1.3,0-1.7-0.1-1.9-0.4c-0.2-0.2-0.2-0.3-0.2-0.8V106.7 M234.5,107.6
				c0,0.3,0,0.4,0.1,0.4c0.1,0.1,0.3,0.2,1.6,0.2c1.2,0,1.5-0.1,1.6-0.2c0.1-0.1,0.1-0.2,0.1-0.4v-0.9c0-0.3,0-0.4-0.1-0.4
				c-0.1-0.1-0.3-0.2-1.6-0.2c-1.2,0-1.5,0.1-1.6,0.2c-0.1,0.1-0.1,0.2-0.1,0.4V107.6z"/>
			<path class="st3" d="M227.7,98.6c0-0.4,0-0.6,0.2-0.8c0.2-0.2,0.6-0.4,1.9-0.4c1.3,0,1.7,0.2,1.9,0.4c0.2,0.2,0.2,0.4,0.2,0.8
				v0.9c0,0.4,0,0.6-0.2,0.8c-0.2,0.2-0.6,0.4-1.9,0.4c-1.3,0-1.7-0.1-1.9-0.4c-0.2-0.2-0.2-0.3-0.2-0.8V98.6 M228.1,99.4
				c0,0.3,0,0.4,0.1,0.4c0.1,0.1,0.3,0.2,1.6,0.2c1.2,0,1.5-0.1,1.6-0.2c0.1-0.1,0.1-0.2,0.1-0.4v-0.9c0-0.3,0-0.4-0.1-0.4
				c-0.1-0.1-0.3-0.2-1.6-0.2c-1.2,0-1.5,0.1-1.6,0.2c-0.1,0.1-0.1,0.2-0.1,0.4V99.4z"/>
			<path class="st3" d="M234.1,98.6c0-0.4,0-0.6,0.2-0.8c0.2-0.2,0.6-0.4,1.9-0.4c1.3,0,1.7,0.2,1.9,0.4c0.2,0.2,0.2,0.4,0.2,0.8
				v0.9c0,0.4,0,0.6-0.2,0.8c-0.2,0.2-0.6,0.4-1.9,0.4c-1.3,0-1.7-0.1-1.9-0.4c-0.2-0.2-0.2-0.3-0.2-0.8V98.6 M234.5,99.4
				c0,0.3,0,0.4,0.1,0.4c0.1,0.1,0.3,0.2,1.6,0.2c1.2,0,1.5-0.1,1.6-0.2c0.1-0.1,0.1-0.2,0.1-0.4v-0.9c0-0.3,0-0.4-0.1-0.4
				c-0.1-0.1-0.3-0.2-1.6-0.2c-1.2,0-1.5,0.1-1.6,0.2c-0.1,0.1-0.1,0.2-0.1,0.4V99.4z"/>
			<polyline class="st3" points="232.9,108 227.7,105.6 227.7,105.1 232.9,107.6 232.9,108 			"/>
		</g>
		<g>
			<polyline class="st3" points="230.7,143.7 230.7,144.6 231.6,144.6 231.6,143.6 231.8,143.6 231.8,145 229.4,145 229.4,143.7 
				229.7,143.7 229.7,144.6 230.5,144.6 230.5,143.7 230.7,143.7 			"/>
			<path class="st3" d="M231.8,141.9l-0.5,0.3c-0.2,0.1-0.3,0.2-0.5,0.3v0c0.1,0.1,0.3,0.1,0.5,0.3l0.5,0.3v0.4l-1.2-0.7l-1.2,0.7
				V143l0.6-0.3c0.2-0.1,0.3-0.2,0.4-0.2v0c-0.1-0.1-0.3-0.1-0.4-0.2l-0.6-0.3v-0.4l1.2,0.7l1.2-0.7V141.9"/>
			<path class="st3" d="M229.5,141.2c0-0.1,0-0.3,0-0.6c0-0.3,0.1-0.5,0.2-0.7c0.1-0.1,0.3-0.2,0.5-0.2c0.2,0,0.4,0.1,0.5,0.2
				c0.2,0.2,0.3,0.4,0.3,0.7l0,0.2h1v0.3H229.5 M230.6,140.9l0-0.3c0-0.4-0.2-0.6-0.5-0.6c-0.3,0-0.5,0.2-0.5,0.6c0,0.1,0,0.2,0,0.3
				H230.6z"/>
			<path class="st3" d="M231.6,139.4c-0.1,0-0.2-0.1-0.2-0.2c0-0.1,0.1-0.2,0.2-0.2c0.1,0,0.2,0.1,0.2,0.2
				C231.9,139.3,231.8,139.4,231.6,139.4"/>
			<path class="st3" d="M229.5,137.6c0-0.2-0.1-0.4-0.1-0.7c0-0.4,0.1-0.8,0.3-1c0.2-0.2,0.5-0.3,0.9-0.3c0.4,0,0.7,0.1,0.9,0.3
				c0.2,0.2,0.3,0.6,0.3,1.1c0,0.2,0,0.4,0,0.6H229.5 M231.6,137.3c0-0.1,0-0.2,0-0.3c0-0.7-0.4-1-1-1c-0.6,0-0.9,0.3-0.9,1
				c0,0.2,0,0.3,0,0.4H231.6z"/>
			<path class="st3" d="M231.1,134.8l0.7,0.2v0.3l-2.4-0.8v-0.4l2.4-0.8v0.3l-0.7,0.3V134.8 M230.8,134.1l-0.7,0.2
				c-0.2,0.1-0.3,0.1-0.4,0.1v0c0.1,0,0.3,0.1,0.4,0.1l0.7,0.2V134.1z"/>
			<polyline class="st3" points="229.7,132.6 229.7,133.3 229.4,133.3 229.4,131.6 229.7,131.6 229.7,132.3 231.8,132.3 
				231.8,132.6 229.7,132.6 			"/>
			<polyline class="st3" points="230.7,130.1 230.7,131 231.6,131 231.6,130 231.8,130 231.8,131.3 229.4,131.3 229.4,130 
				229.7,130 229.7,131 230.4,131 230.4,130.1 230.7,130.1 			"/>
		</g>
	</g>
	<g>
		<path class="st3" d="M157.1,136.6V135h-2.5v-1.7h-1.3v1.7h-6.1v1.8c0,0.5,0.2,0.8,0.8,1.2l4.9,3c0.4,0.3,0.7,0.3,1.2,0.3h0.5v-4.9
			H157.1z M153.4,139.7l-4.8-2.9v-0.2h4.8V139.7z M157.1,128.2v-1.9c0-1.1-0.1-1.5-0.5-1.9c-0.5-0.5-1.5-1-4.4-1c-3,0-3.9,0.4-4.4,1
			c-0.4,0.4-0.5,0.9-0.5,1.9v1.9c0,1.1,0.1,1.5,0.5,1.9c0.5,0.5,1.5,1,4.4,1c3,0,3.9-0.4,4.4-1C157,129.8,157.1,129.3,157.1,128.2z
			 M148.9,129.1c-0.1-0.1-0.2-0.3-0.2-0.8v-1.8c0-0.5,0.1-0.7,0.2-0.8c0.2-0.2,0.7-0.4,3.4-0.4c2.7,0,3.2,0.3,3.4,0.4
			c0.1,0.1,0.2,0.3,0.2,0.8v1.8c0,0.5-0.1,0.7-0.2,0.8c-0.2,0.2-0.7,0.4-3.4,0.4C149.5,129.5,149,129.2,148.9,129.1z M157.1,118.2
			v-1.9c0-1.1-0.1-1.5-0.5-1.9c-0.5-0.5-1.5-1-4.4-1c-3,0-3.9,0.4-4.4,1c-0.4,0.4-0.5,0.9-0.5,1.9v1.9c0,1.1,0.1,1.5,0.5,1.9
			c0.5,0.5,1.5,1,4.4,1c3,0,3.9-0.4,4.4-1C157,119.7,157.1,119.3,157.1,118.2z M148.9,119c-0.1-0.1-0.2-0.3-0.2-0.8v-1.8
			c0-0.5,0.1-0.7,0.2-0.8c0.2-0.2,0.7-0.4,3.4-0.4c2.7,0,3.2,0.3,3.4,0.4c0.1,0.1,0.2,0.3,0.2,0.8v1.8c0,0.5-0.1,0.7-0.2,0.8
			c-0.2,0.2-0.7,0.4-3.4,0.4C149.5,119.5,149,119.2,148.9,119z M157.1,108.2v-1.9c0-1.1-0.1-1.5-0.5-2c-0.5-0.5-1.5-1-4.4-1
			c-3,0-3.9,0.4-4.4,1c-0.4,0.4-0.5,0.9-0.5,2v1.9c0,1.1,0.1,1.5,0.5,1.9c0.5,0.5,1.5,1,4.4,1c3,0,3.9-0.4,4.4-1
			C157,109.7,157.1,109.3,157.1,108.2z M148.9,109c-0.1-0.1-0.2-0.3-0.2-0.8v-1.8c0-0.5,0.1-0.7,0.2-0.8c0.2-0.2,0.7-0.4,3.4-0.4
			c2.7,0,3.2,0.3,3.4,0.4c0.1,0.1,0.2,0.3,0.2,0.8v1.8c0,0.5-0.1,0.7-0.2,0.8c-0.2,0.2-0.7,0.4-3.4,0.4
			C149.5,109.4,149,109.2,148.9,109z M175.9,137.7h-8.2l0.6,1.7l-1.3,0.4l-0.9-2.4v-1.3h9.8V137.7z M169.7,125.7
			c-0.2-0.1-0.4-0.2-1.1-0.2c-0.5,0-0.8,0.1-1,0.3c-0.2,0.1-0.2,0.4-0.2,0.9v1.5c0,0.5,0.1,0.7,0.2,0.8c0.1,0.1,0.5,0.2,1.4,0.2v1.6
			c-1.5,0-2.1-0.3-2.5-0.7c-0.3-0.3-0.5-0.9-0.5-1.8v-2.2c0-0.9,0.1-1.4,0.5-1.7c0.5-0.5,1.3-0.7,2.1-0.7c1,0,1.5,0.1,2,0.5
			c0.4,0.3,0.7,0.8,1,1.6l1,2.5c0.1,0.2,0.3,0.6,0.4,0.7c0.2,0.2,0.5,0.3,1.3,0.3h0.1v-5.7h1.4v7.2h-1.1c-1.6,0-2.2-0.2-2.7-0.7
			c-0.4-0.3-0.6-0.7-0.9-1.5l-1-2.4C170,125.9,169.9,125.8,169.7,125.7z M174.3,115.6c-0.1-0.1-0.5-0.3-1.3-0.3
			c-0.8,0-1.2,0.2-1.4,0.3c-0.1,0.1-0.2,0.3-0.2,0.8v2.1h-1.3v-2c0-0.5-0.1-0.7-0.2-0.8c-0.1-0.1-0.5-0.3-1.2-0.3
			c-0.7,0-1.1,0.2-1.2,0.3c-0.1,0.1-0.2,0.3-0.2,0.8v1.8c0,0.5,0.1,0.7,0.2,0.8c0.1,0.1,0.6,0.2,1.4,0.3v1.6c-1.2,0-2-0.2-2.5-0.7
			c-0.3-0.3-0.5-0.9-0.5-1.7V116c0-0.8,0.1-1.3,0.5-1.7c0.5-0.5,1.3-0.7,2.1-0.7c1.3,0,2,0.6,2.1,1.3h0c0.1-0.8,0.8-1.4,2.2-1.4
			c1.1,0,1.9,0.2,2.4,0.7c0.3,0.3,0.5,0.8,0.5,1.7v2.7c0,0.8-0.2,1.4-0.5,1.7c-0.5,0.5-1.3,0.7-2.7,0.7v-1.6c1.1,0,1.5-0.1,1.6-0.3
			c0.1-0.1,0.2-0.3,0.2-0.8v-2C174.5,115.9,174.4,115.7,174.3,115.6z M166,106.8c0,0.5,0.2,0.8,0.8,1.2l4.9,3
			c0.4,0.3,0.7,0.3,1.2,0.3h0.5v-4.9h2.5v-1.5h-2.5v-1.7h-1.3v1.7H166V106.8z M172.1,106.5v3.1l-4.8-2.9v-0.2H172.1z M193,135.6
			c-0.2-0.2-0.6-0.3-1.6-0.3c-1,0-1.4,0.1-1.6,0.3c-0.1,0.1-0.2,0.3-0.2,0.8v1.1c0,0.7,0.1,1.2,0.6,2l-0.4,1.2l-5.1-0.3V134h1.4v5
			l2.8,0.2v-0.1c-0.6-0.7-0.6-1-0.6-2v-0.9c0-0.9,0.2-1.5,0.5-1.8c0.5-0.5,1.2-0.7,2.6-0.7c1.4,0,2.1,0.2,2.6,0.7
			c0.4,0.4,0.6,0.9,0.6,1.8v2.3c0,0.8-0.1,1.5-0.5,1.8c-0.5,0.5-1,0.7-2.5,0.7v-1.6c1,0,1.3-0.2,1.4-0.3c0.1-0.1,0.2-0.4,0.2-0.8
			v-1.8C193.2,136,193.1,135.7,193,135.6z M186.1,128v-1.5c0-0.4,0.1-0.6,0.2-0.8c0.1-0.1,0.4-0.2,1.2-0.2v-1.6
			c-1.3,0-1.9,0.2-2.3,0.6c-0.3,0.3-0.5,0.8-0.5,1.6v1.8c0,1.1,0.1,1.6,0.5,2.1c0.5,0.6,1.5,1,4.4,1c3,0,3.9-0.4,4.4-1
			c0.4-0.4,0.5-0.9,0.5-2v-2c0-0.9-0.2-1.4-0.6-1.8c-0.5-0.5-1.1-0.7-2.4-0.7c-1.2,0-1.9,0.1-2.4,0.6c-0.4,0.4-0.5,0.9-0.5,1.8v1.7
			c0,0.6,0.1,0.9,0.8,1.7c-2.5,0-3-0.2-3.2-0.4C186.2,128.8,186.1,128.6,186.1,128z M190.1,128.2v-1.7c0-0.5,0.1-0.7,0.2-0.9
			c0.2-0.2,0.6-0.3,1.3-0.3c0.7,0,1.1,0.1,1.3,0.3c0.2,0.2,0.2,0.4,0.2,0.9v1.6c0,0.6-0.1,0.7-0.2,0.9c-0.2,0.2-0.6,0.4-2.5,0.5
			C190.2,128.9,190.1,128.6,190.1,128.2z M194.5,119.7l-8.4-4.1v5h-1.4v-6.9h1l8.8,4.2V119.7z M191.7,110.9c1.1,0,1.8-0.2,2.2-0.7
			c0.4-0.4,0.6-0.9,0.6-1.8V106c0-0.9-0.2-1.4-0.6-1.8c-0.5-0.5-1.1-0.7-2.2-0.7c-1.5,0-2.1,0.5-2.3,1.4h0c-0.1-0.8-0.7-1.3-2.1-1.3
			c-1,0-1.6,0.2-2.1,0.7c-0.4,0.3-0.5,0.8-0.5,1.7v2.5c0,0.8,0.2,1.3,0.5,1.7c0.4,0.5,1.1,0.7,2.1,0.7c1.4,0,2-0.5,2.1-1.3h0
			C189.6,110.4,190.3,110.9,191.7,110.9z M186.3,108.9c-0.2-0.2-0.2-0.4-0.2-0.8v-1.8c0-0.4,0.1-0.6,0.2-0.8
			c0.2-0.2,0.5-0.2,1.1-0.2c0.7,0,1,0.1,1.2,0.2c0.2,0.2,0.2,0.4,0.2,0.8v1.8c0,0.4-0.1,0.6-0.2,0.8c-0.2,0.2-0.5,0.2-1.2,0.2
			C186.8,109.2,186.5,109.1,186.3,108.9z M190.3,109c-0.2-0.2-0.2-0.4-0.2-0.9v-1.7c0-0.5,0.1-0.7,0.2-0.9c0.2-0.2,0.6-0.3,1.4-0.3
			c0.7,0,1.1,0.1,1.3,0.3c0.2,0.2,0.2,0.4,0.2,0.9v1.7c0,0.5-0.1,0.7-0.2,0.9c-0.2,0.2-0.6,0.3-1.3,0.3
			C190.9,109.3,190.5,109.2,190.3,109z M203.5,136.5v2c0,0.9,0.2,1.4,0.6,1.8c0.5,0.5,1.2,0.7,2.5,0.7c1.3,0,2-0.1,2.5-0.6
			c0.4-0.4,0.5-0.9,0.5-1.8V137c0-0.6-0.1-0.9-0.7-1.7c2.5,0,2.8,0.3,3,0.4c0.1,0.2,0.2,0.3,0.2,0.9v1.8c0,0.4-0.1,0.6-0.2,0.8
			c-0.1,0.1-0.4,0.2-1.1,0.3v1.6c1.3,0,1.8-0.2,2.2-0.6c0.3-0.3,0.5-0.8,0.5-1.6v-2.1c0-1.1-0.1-1.6-0.5-2.1c-0.5-0.6-1.5-1-4.4-1
			c-3,0-3.9,0.4-4.4,1C203.6,135,203.5,135.5,203.5,136.5z M208.1,136.5v1.7c0,0.5-0.1,0.7-0.2,0.9c-0.2,0.2-0.7,0.3-1.4,0.3
			c-0.7,0-1.2-0.1-1.4-0.3c-0.2-0.2-0.2-0.4-0.2-0.9v-1.6c0-0.6,0.1-0.7,0.2-0.9c0.2-0.2,0.8-0.4,2.8-0.4
			C208,135.7,208.1,136.1,208.1,136.5z M203.5,126.4v1.9c0,1.1,0.1,1.5,0.5,1.9c0.5,0.5,1.5,1,4.4,1c3,0,3.9-0.4,4.4-1
			c0.4-0.4,0.5-0.9,0.5-1.9v-1.9c0-1.1-0.1-1.5-0.5-1.9c-0.5-0.5-1.5-1-4.4-1c-3,0-3.9,0.4-4.4,1
			C203.5,124.9,203.5,125.4,203.5,126.4z M211.7,125.6c0.1,0.1,0.2,0.3,0.2,0.8v1.8c0,0.5-0.1,0.7-0.2,0.8c-0.2,0.2-0.7,0.4-3.4,0.4
			c-2.7,0-3.2-0.3-3.4-0.4c-0.1-0.1-0.2-0.3-0.2-0.8v-1.8c0-0.5,0.1-0.7,0.2-0.8c0.2-0.2,0.7-0.4,3.4-0.4
			C211.1,125.2,211.6,125.4,211.7,125.6z M203.4,117v-1.3h9.8v1.6H205l0.6,1.7l-1.3,0.4L203.4,117z M203.5,106.3v1.9
			c0,1.1,0.1,1.5,0.5,1.9c0.5,0.5,1.5,1,4.4,1c3,0,3.9-0.4,4.4-1c0.4-0.4,0.5-0.9,0.5-1.9v-1.9c0-1.1-0.1-1.5-0.5-2
			c-0.5-0.5-1.5-1-4.4-1c-3,0-3.9,0.4-4.4,1C203.5,104.8,203.5,105.3,203.5,106.3z M211.7,105.5c0.1,0.1,0.2,0.3,0.2,0.8v1.8
			c0,0.5-0.1,0.7-0.2,0.8c-0.2,0.2-0.7,0.4-3.4,0.4c-2.7,0-3.2-0.3-3.4-0.4c-0.1-0.1-0.2-0.3-0.2-0.8v-1.8c0-0.5,0.1-0.7,0.2-0.8
			c0.2-0.2,0.7-0.4,3.4-0.4C211.1,105.1,211.6,105.3,211.7,105.5z M146.6,99.5h12.6l0,0.2l4.4,45.2h12.8v0.4h-13.1l0-0.2l-4.4-45.2
			h-12.3V99.5z M184.1,99.8v-0.4h12.6l0,0.2l4.4,45.2h12.8v0.4h-13.1l0-0.2l-4.4-45.2H184.1z M165.4,99.8v-0.4h12.6l0,0.2l4.4,45.2
			h12.8v0.4H182l0-0.2l-4.4-45.2H165.4z"/>
	</g>
</g>
</svg>
