<?xml version="1.0" encoding="utf-8"?>
<!-- Generator: Adobe Illustrator 28.0.0, SVG Export Plug-In . SVG Version: 6.00 Build 0)  -->
<svg version="1.1" id="Camada_1" xmlns="http://www.w3.org/2000/svg" xmlns:xlink="http://www.w3.org/1999/xlink" x="0px" y="0px"
	 viewBox="0 0 550 140" style="enable-background:new 0 0 550 140;" xml:space="preserve">
<style type="text/css">
	.st0{fill:#F37021;}
</style>
<g>
	<path class="st0" d="M289.9,42.7l26.7-9.8V6.6l-32.3,25.3c-2,1.6-3.3,3.1-3.3,5.5C281,41.5,284.9,44.6,289.9,42.7 M281,133.8h17.2
		V51H281V133.8z M203,133.8h17.2v-31.9h43V86.3h-43c-0.3-13,8.4-20.8,20.5-20.8c6.6,0,12.2,2.3,16.4,5.3L268,58.5
		c-8-5.9-16.6-9.1-26.9-9.1c-22.7,0-38.1,15-38.1,36.9V133.8z M125.7,83.7c2.5-11.2,11.4-18.1,23.7-18.1c12.5,0,20.8,6.9,22.3,18.1
		H125.7z M189.4,90.7c0-19.1-13.7-41.2-40-41.2c-23.1,0-41.2,17.3-41.2,42.3c0,25,18.3,43.6,43,43.6c15.3,0,27.7-7.3,35.8-18.1
		l-12-9.8c-5.9,7.8-14.1,11.9-24.2,11.9c-13.4,0-22.5-7.7-25-20h55.3C186.3,99.3,189.4,96.8,189.4,90.7"/>
	<path class="st0" d="M366.8,109.4h-1.2l10,24.4h4.9l-10.7-25.1c-0.6-1.4-1.6-2.5-3.5-2.5c-1.7,0-2.9,0.9-3.6,2.5L352,133.8h4.8
		L366.8,109.4z M325.2,133.8h4.5v-27.6h-4.5V133.8z M338.7,120.9c4.8,0,8.5-3.3,8.5-7.7c0-4.2-3.3-6.9-8.3-6.9h-11.7v4h11.1
		c2.5,0,4.2,1.4,4.2,3.7c0,2.3-1.6,4-3.8,4V120.9z M385.7,133.8h4.5l-0.2-24.9l-2.4,0.9l16,22.1c0.9,1.3,2.1,1.9,3.2,1.9
		c1.5,0,2.6-1.3,2.6-3v-24.6h-4.5l0.2,24.9l2.4-0.9l-16-22.1c-0.9-1.2-1.7-1.9-3.1-1.9c-1.5,0-2.7,1.3-2.7,3V133.8z M357.1,128.3
		h18.5v-4h-18.5V128.3z M437.1,133.8h5.7L430.1,120l12.6-13.8h-5.8l-10.4,11.5c-1.3,1.5-1.4,3,0,4.5L437.1,133.8z M418.6,133.8h4.5
		v-27.6h-4.5V133.8z M327.2,133.8h11.6c6.1,0,9.5-3,9.5-7.6c0-5.3-4.8-8.2-9.6-8.2h-11.5v4h12.1c2.5,0,4.2,1.3,4.2,3.6
		c0,2.6-2.1,4.2-5.1,4.2h-11.2V133.8z"/>
</g>
</svg>
